<svg xmlns="http://www.w3.org/2000/svg" width="738" height="529.27" viewBox="0 0 738 529.27">
  <g id="Group_2105" data-name="Group 2105" transform="translate(-131.705 -52.541)">
    <path id="Path_3760" data-name="Path 3760" d="M853.991,400.259c-31.192,52.831-92.9,72.141-150.936,90.752-59.719,17.061-115.755,33.417-174.309,44.454-58.4,11.858-116.306,17.8-177.869,24.482-60.54,4.6-124.745,9.94-172.072-27.528-23.287-19.248-39.729-48.927-45.146-88.662-5.43-39.416.165-88.889,20.548-140.347,20.235-51.3,55.251-104.6,105-148.319,49.448-43.743,113.622-77.913,185.229-91.634A384.442,384.442,0,0,1,648.778,78.838c61.471,21.945,112.519,58.4,149.1,98.59,36.769,40.268,59.063,84.274,67.606,123.084C874.153,339.609,869.06,373.5,853.991,400.259Z" transform="translate(0 18.625)" fill="#e9f6ff"/>
    <path id="Path_3761" data-name="Path 3761" d="M131.713,115.306a214.74,214.74,0,0,0,1.906,25.205c5.417,39.735,21.859,69.414,45.146,88.662C226.093,266.641,290.3,261.3,350.837,256.7c61.563-6.68,119.468-12.624,177.869-24.482,58.554-11.037,114.59-27.393,174.309-44.454C753.8,171.483,807.4,154.661,840.9,115.306Z" transform="translate(0.039 321.871)" fill="#fec00f"/>
    <g id="Group_2082" data-name="Group 2082" transform="translate(406.229 52.54)">
      <path id="Path_3762" data-name="Path 3762" d="M218.171,94.127c-1.661-1.066-7.323,5.54-9.725,11.38-4.719,11.453-5.932,17.79-7.758,30.414-2.9,20.039-7.807,51.856-9.431,65.4-1.459,12.207-6.153,26.639.858,24.6-.1-16.754,7.256-42.021,11.521-55.288C218.207,125.332,223.269,97.394,218.171,94.127Z" transform="translate(-115.68 160.139)" fill="#e9d6b8"/>
      <path id="Path_3763" data-name="Path 3763" d="M197.556,109.252q.928-4.817,1.894-9.486c2.175-4.541,4.069-6.925,5.515-6.569,5.466,1.342,10.418,27.24-6.766,88.736-.858,3.095-12.391,56.7-12.311,55.386C187.874,202.9,188.352,156.91,197.556,109.252Z" transform="translate(-128.372 155.77)" fill="#e9d6b8"/>
      <path id="Path_3764" data-name="Path 3764" d="M193.3,128.178c-2.966,6.281-6.655,10.706-8.242,9.885s-.466-6.576,2.5-12.863,6.661-10.706,8.242-9.885S196.268,121.891,193.3,128.178Z" transform="translate(-136.35 268.874)" fill="#387bff"/>
      <path id="Path_3765" data-name="Path 3765" d="M191.986,129.889c-1.52,4.921-4.749,8.475-6.336,7.66s-1-5.043,1.385-9.566c3.015-5.73,4.161-7.366,4.425-11.472C191.692,112.657,197.7,111.407,191.986,129.889Z" transform="translate(-134.133 263.431)" fill="#e9d6b8"/>
      <path id="Path_3766" data-name="Path 3766" d="M204.874,122.366a32.3,32.3,0,0,0-5.975-1.587c-2.562-.509-4.51-.49-5.43-1.5-1.526-1.667-.68-5.7-1.428-5.515-3.628.87-4.884,9.756-2.764,10.865s14.083-.368,15.069-.447S205.174,122.127,204.874,122.366Z" transform="translate(-116.282 261.413)" fill="#e9d6b8"/>
      <path id="Path_3767" data-name="Path 3767" d="M202.523,115.035c.674,2.991-8.1,1.783-10.363,1.005a24.845,24.845,0,0,0-3.554-.974c-.092,0-.178-.018-.27-.018-.006.067-.031.141-.031.214,0,1.642-.692,3.83,1.82,3.83h15.719C218.7,119.092,202.5,114.967,202.523,115.035Z" transform="translate(-116.425 267.935)" fill="#387bff"/>
      <path id="Path_3768" data-name="Path 3768" d="M222.351,87.953l3.487-24.384c-2.794-5.8-7.354-9.86-12.918-10.737-10.749-1.685-21.2,9.113-23.342,24.12s4.829,28.527,15.566,30.212c7.519,1.177,14.885-3.763,19.371-11.962A9.158,9.158,0,0,1,222.351,87.953Z" transform="translate(-111.44 -51.929)" fill="#163f59"/>
      <path id="Path_3769" data-name="Path 3769" d="M187.625,89.178c-1.465,3.609,1.287,8.285,6.153,10.448l11.086,4.939c4.866,2.163,9.995.993,11.46-2.617l13.372-32.933c1.471-3.609-1.281-8.285-6.14-10.455l-11.092-4.933c-4.86-2.169-9.995-.993-11.46,2.617Z" transform="translate(-121.481 -52.54)" fill="#163f59"/>
      <path id="Path_3770" data-name="Path 3770" d="M219.789,82.067c7.109,3.217,10.657,2.212,5.234,4.608-2.611,3.346-35.96-1.311-37.774-5.644-.3-.723,13.237-2.807,13.31-3.346.833-6.281,1.158-11.594-.515-18.617a1.028,1.028,0,0,1,.889-.981c2.525.08,5.068.1,7.611.178.417.024,5.387,1.17,4.284,3.665C212.282,68.769,212.275,78.666,219.789,82.067Z" transform="translate(-121.422 -24.092)" fill="#e9d6b8"/>
      <path id="Path_3771" data-name="Path 3771" d="M206.853,85.12c.178-.2.355-.417.527-.619.049-.067.1-.123.159-.2.215-.257.423-.527.637-.815l.165-.227c.153-.214.306-.429.454-.65l.251-.362c.123-.19.245-.374.368-.57.086-.129.165-.27.251-.4.153-.257.3-.515.46-.778.11-.2.221-.386.331-.594.1-.178.208-.368.3-.545s.2-.374.288-.57c.086-.159.172-.319.251-.5.061-.129.129-.257.2-.392V77.9c1.091-2.3,3.585-13.96,3.315-19.984a1.791,1.791,0,0,0-1.526-1.648c-5.8-1.115-22.662-7.329-22.932,10.375l-.006.012c0,.043-.159,1.526-.208,2.212l-.006.178c-.049.686-.092,1.373-.1,2.041v.135c-.012.686-.012,1.36.006,2.022v.067c.239,8.463,3.064,14.885,7.7,15.988,2.7.643,5.6-.631,8.273-3.3l.012.006.055-.067c.2-.2.4-.411.607-.631Z" transform="translate(-107.169 -43.482)" fill="#e9d6b8"/>
      <path id="Path_3772" data-name="Path 3772" d="M179.484,73.987s-1.244.625-1.765-.362c-.852-1.636-1.164-5.356-1.213-6.686-.061-1.483.76-8.512.76-8.512a8.565,8.565,0,0,1,1.048,5.031C177.842,67.6,179.484,73.987,179.484,73.987Z" transform="translate(-176.503 -22.348)" fill="#e9d6b8"/>
      <path id="Path_3773" data-name="Path 3773" d="M178.953,72.584c-1.134-2.4-.545-5.43.968-8.831,1.434-3.217.392-5.24.392-5.24a43.855,43.855,0,0,0-2.862,7.219,13.679,13.679,0,0,0-.864,4.651C176.759,75.035,181.864,78.749,178.953,72.584Z" transform="translate(-176.094 -21.907)" fill="#e9d6b8"/>
      <path id="Path_3774" data-name="Path 3774" d="M200.191,65.789c-6.484,5.013-12.226,22.65-16.681,33.827a21.421,21.421,0,0,0-1.587,11.049s2.2,14.763,19-25.475C205.131,75.123,202.624,63.908,200.191,65.789Z" transform="translate(-149.557 14.334)" fill="#e9d6b8"/>
      <path id="Path_3775" data-name="Path 3775" d="M178.494,62.429l-1.085.723L176.68,67.7s1.961,8.059,3.744,10.822S189.408,103.035,190.6,104c2.108,1.716,6.287-4.186,6.287-4.186s-9.155-15.21-11.012-20.094-2.206-12.8-2.868-14.738c-1.128-3.315-1.52-5.062-1.52-5.062s-1.606.876-.129,6.183c.386,1.4-1.311,1.115-1.311,1.115Z" transform="translate(-175.592 -14.681)" fill="#e9d6b8"/>
      <path id="Path_3776" data-name="Path 3776" d="M189.145,114.684l44.506-.392,5.443-53.285-52.812,5.251Z" transform="translate(-126.355 -9.119)" fill="#387bff"/>
      <path id="Path_3777" data-name="Path 3777" d="M243.718,229.751c-21.884,3.585-25.836.539-50.986-3.217-2.384.037-12.575-25.585-5.4-93.178,1.477-13.929,11.533-25.113,9.235-62.924q22.438-.46,44.876-.907C235.488,103.891,271.05,109.234,243.718,229.751Z" transform="translate(-133.88 34.554)" fill="#387bff"/>
      <path id="Path_3778" data-name="Path 3778" d="M199.963,128.738l-6.324-46.715,1.538-18.838a6.48,6.48,0,0,1,3.855-2.016l1.005-.135c3.9-.5,7.4,2.935,7.826,7.672l4.964,63.96Z" transform="translate(-88.624 -9.229)" fill="#387bff"/>
      <path id="Path_3779" data-name="Path 3779" d="M190.235,129.994l20.186-40.771L216.574,65.4a7.077,7.077,0,0,0-3.322-2.69l-.944-.374a7,7,0,0,0-9.131,4.339l-21.522,46.568Z" transform="translate(-150.074 -4.761)" fill="#387bff"/>
      <path id="Path_3780" data-name="Path 3780" d="M177.582,72.827s-1.232-4.051-.613-6.091c.441-1.409,3.524-7.715,3.524-7.715a8.655,8.655,0,0,1-.674,5.1A29.209,29.209,0,0,0,177.582,72.827Z" transform="translate(-174.999 -19.312)" fill="#e9d6b8"/>
      <path id="Path_3781" data-name="Path 3781" d="M177.712,62.55s1.128.27,1.5-.1a7.219,7.219,0,0,1-.11,1.115c-.073.7.294,5.472.294,5.472a40.344,40.344,0,0,0-1.367-4.314,19.988,19.988,0,0,1-.883-3.2,6.6,6.6,0,0,1,.006-.686Z" transform="translate(-173.259 -10.01)" fill="#e9d6b8"/>
      <path id="Path_3782" data-name="Path 3782" d="M178.346,65.763c-1-3.56-.588-5.129-.221-5.773.227.84.619,2.194,1.256,4.069a26.15,26.15,0,0,1,.656,3.812c.049.331-1.152.643-1.624,3.518-.086.521-.993-2.6-1.146-4.492C177.714,66.909,178.646,66.841,178.346,65.763Z" transform="translate(-172.582 -14.338)" fill="#e9d6b8"/>
      <path id="Path_3783" data-name="Path 3783" d="M211.947,86.224a9.151,9.151,0,0,1-2.163-7.25l3.487-24.384c-.135-.276-.288-.527-.435-.791l-.374-.172c-4.86-2.169-10-.993-11.46,2.617L187.624,89.178c-1.134,2.782.27,6.2,3.193,8.6a14.075,14.075,0,0,0,1.759.4C200.095,99.363,207.461,94.424,211.947,86.224Z" transform="translate(-121.48 -52.54)" fill="#163f59"/>
      <path id="Path_3784" data-name="Path 3784" d="M199.007,68.182l46.557-4.875-15.9,63.442-42.881,4.787Z" transform="translate(-123.758 2.675)" fill="#fec00f"/>
      <g id="Group_2081" data-name="Group 2081" transform="translate(88.09 64.772)">
        <path id="Path_3785" data-name="Path 3785" d="M202.472,96.76c-5.252-8.5-3.8-14.628-4.725-18.764a76.706,76.706,0,0,1-1.287-8.659c-2,4.008-.392,6.821-.564,8.886s.123,1.348-1.949-1.538c-1.183-1.655-.4-6.441-.294-9.6a8.872,8.872,0,0,0-.521-3.977,42.892,42.892,0,0,0-1.728,8.224,53.414,53.414,0,0,0,.19,11.981c.5,2.231,3.836,8.022,6.808,11.76C201.761,99.278,206.265,102.882,202.472,96.76Z" transform="translate(-189.389 -63.11)" fill="#e9d6b8"/>
        <path id="Path_3786" data-name="Path 3786" d="M218.192,97.82c-11.435-14.364-26.6-30.739-26.6-30.739l20.817,37.333S223.91,105,218.192,97.82Z" transform="translate(-187.221 -42.746)" fill="#e9d6b8"/>
        <path id="Path_3787" data-name="Path 3787" d="M210.14,80.517s7.372,10.375.729,14.217c-3.775,2.182-6.8.809-8.972-2.365-4.032-5.908-8.3-12.832-8.3-12.832l7.182-9.842Z" transform="translate(-176.914 -29.341)" fill="#387bff"/>
        <path id="Path_3788" data-name="Path 3788" d="M192.9,78.944s-2.151-7.605-2.022-9.254c.092-1.134,1.385-6.416,1.385-6.416a11.126,11.126,0,0,1,.607,4.878C192.464,70.309,192.9,78.944,192.9,78.944Z" transform="translate(-190.877 -62.269)" fill="#e2c59c"/>
      </g>
      <path id="Path_3789" data-name="Path 3789" d="M186.577,65.749s-9.155,4.192-8.01,8.377,12.005,37.112,18.869,40.1,10.289-6.582,10.865-8.978S186.577,65.749,186.577,65.749Z" transform="translate(-166.424 15.195)" fill="#387bff"/>
    </g>
    <g id="Group_2097" data-name="Group 2097" transform="translate(268.413 136.32)">
      <g id="Group_2088" data-name="Group 2088" transform="translate(0 112.873)">
        <g id="Group_2083" data-name="Group 2083" transform="translate(0 21.206)">
          <path id="Path_3790" data-name="Path 3790" d="M169.962,187.447a14.129,14.129,0,0,1-9.6-3.634c-4.823-4.394-6.912-12.207-6.214-23.22.478-7.433,3.272-14.959,6.232-22.925,4.982-13.408,10.626-28.6,7.672-48.688l5.485-.889c3.174,21.632-3.015,38.295-7.985,51.679-2.923,7.869-5.448,14.665-5.865,21.21-.57,8.929.907,15.3,4.265,18.4a8.893,8.893,0,0,0,7.335,2.157l1.109,5.693A12.061,12.061,0,0,1,169.962,187.447Z" transform="translate(-154.014 -88.091)" fill="#0054df"/>
        </g>
        <g id="Group_2086" data-name="Group 2086" transform="translate(13.485 140.982)">
          <g id="Group_2084" data-name="Group 2084" transform="translate(4.648 25.657)">
            <path id="Path_3791" data-name="Path 3791" d="M197.324,111.823l5.4,8.622L157.35,135.668s-3.033-3.033,8.1-9.131C178.412,119.434,197.324,111.823,197.324,111.823Z" transform="translate(-156.972 -111.823)" fill="#88bdda"/>
            <path id="Path_3792" data-name="Path 3792" d="M169.39,111.823l-5.4,8.622,45.379,15.222s3.033-3.033-8.108-9.131C188.3,119.434,169.39,111.823,169.39,111.823Z" transform="translate(-120.98 -111.823)" fill="#88bdda"/>
          </g>
          <rect id="Rectangle_371" data-name="Rectangle 371" width="9.481" height="35.342" transform="translate(44.289)" fill="#88bdda"/>
          <g id="Group_2085" data-name="Group 2085" transform="translate(9.851 27.477)">
            <path id="Path_3793" data-name="Path 3793" d="M192.363,112.12l4.627,8.23-38.846,14.518s-2.592-2.893,6.931-8.714C176.179,119.382,192.363,112.12,192.363,112.12Z" transform="translate(-157.821 -112.12)" fill="#acd5f4"/>
            <path id="Path_3794" data-name="Path 3794" d="M168.838,112.12l-4.621,8.23,38.846,14.518s2.592-2.893-6.937-8.714C185.028,119.382,168.838,112.12,168.838,112.12Z" transform="translate(-125.024 -112.12)" fill="#acd5f4"/>
          </g>
          <path id="Path_3795" data-name="Path 3795" d="M164.11,119.253a3.3,3.3,0,1,1-3.3-3.45A3.376,3.376,0,0,1,164.11,119.253Z" transform="translate(-149.537 -65.756)" fill="#001f46"/>
          <path id="Path_3796" data-name="Path 3796" d="M176.387,119.253a3.3,3.3,0,1,1-3.3-3.45A3.376,3.376,0,0,1,176.387,119.253Z" transform="translate(-86.548 -65.756)" fill="#001f46"/>
          <path id="Path_3797" data-name="Path 3797" d="M162.808,119.253a3.3,3.3,0,1,1-3.3-3.45A3.376,3.376,0,0,1,162.808,119.253Z" transform="translate(-156.214 -65.756)" fill="#367082"/>
          <path id="Path_3798" data-name="Path 3798" d="M177.694,119.253a3.3,3.3,0,1,1-3.3-3.45A3.376,3.376,0,0,1,177.694,119.253Z" transform="translate(-79.876 -65.756)" fill="#367082"/>
        </g>
        <rect id="Rectangle_372" data-name="Rectangle 372" width="6.936" height="12.709" transform="translate(58.925 128.032)" fill="#0054df"/>
        <path id="Path_3799" data-name="Path 3799" d="M180.123,110.35a6.926,6.926,0,0,1-6.766,7.078h-3.812a6.929,6.929,0,0,1-6.766-7.078h0a6.929,6.929,0,0,1,6.766-7.078h3.812a6.926,6.926,0,0,1,6.766,7.078Z" transform="translate(-109.058 10.966)" fill="#0054df"/>
        <path id="Path_3800" data-name="Path 3800" d="M259.1,117.852c.165-.833.263-6.055.263-6.955,0-5.718-3.53-10.35-7.887-10.35H163.621c-4.351,0-7.881,4.633-7.881,10.35,0,.9.092,6.122.257,6.955Z" transform="translate(-145.16 -3.013)" fill="#8cc3ff"/>
        <path id="Path_3801" data-name="Path 3801" d="M155.608,106.479c0,1.753.974,3.168,2.182,3.168H258.671c1.207,0,2.182-1.416,2.182-3.168h0c0-1.753-.974-3.168-2.182-3.168H157.79c-1.207,0-2.182,1.416-2.182,3.168Z" transform="translate(-145.837 11.166)" fill="#0054df"/>
        <g id="Group_2087" data-name="Group 2087" transform="translate(9.956)">
          <path id="Path_3802" data-name="Path 3802" d="M156.759,146.368c2.169.165,15.939.417,18.317.447,15.069.19,28.055-2.77,28.778-6.655a140.781,140.781,0,0,0,.392-48.872c-.643-3.885-13.825-6.845-29.213-6.649-2.427.031-16.479.288-18.691.453A138.245,138.245,0,0,1,156.759,146.368Z" transform="translate(-152.029 -84.63)" fill="#8cc3ff"/>
          <path id="Path_3803" data-name="Path 3803" d="M158.3,84.707c-1.685.018-2.862.858-2.629,1.875a138.05,138.05,0,0,1,.472,57.537c-.214,1.017.956,1.851,2.6,1.869h0c1.655.024,3.18-.784,3.389-1.8a138.306,138.306,0,0,0-.361-57.678c-.227-1.017-1.783-1.826-3.475-1.8Z" transform="translate(-155.638 -84.244)" fill="#0054df"/>
          <path id="Path_3804" data-name="Path 3804" d="M156.358,146.151a35.716,35.716,0,0,0,3.947.276c3.285.037,6.667-2.991,7.323-6.815a138.765,138.765,0,0,0-.208-48.13c-.686-3.824-4.155-6.851-7.5-6.815a37.394,37.394,0,0,0-4.032.282A138.1,138.1,0,0,1,156.358,146.151Z" transform="translate(-154.368 -84.444)" fill="#69adfe"/>
        </g>
      </g>
      <g id="Group_2093" data-name="Group 2093" transform="translate(23.314)">
        <g id="Group_2091" data-name="Group 2091" transform="translate(59.717 59.463)">
          <g id="Group_2090" data-name="Group 2090" transform="translate(12.389 60.927)">
            <g id="Group_2089" data-name="Group 2089" transform="translate(7.947 3.142)">
              <path id="Path_3805" data-name="Path 3805" d="M170.881,91.4s.1,4.014,18.728,4.032,45.961-4.774,45.961-4.774l-42.958-4.247S176.115,85.6,170.881,91.4Z" transform="translate(-170.881 -86.37)" fill="#e2c59c"/>
              <path id="Path_3806" data-name="Path 3806" d="M181.584,89.6c8.855.294,12.514,5.068,15.982,6.618a62.438,62.438,0,0,1,6.906,3.836c-1.857-4.032-4.713-4.235-6.1-5.564s-1.042-.68,2.114-.815c1.8-.08,4.853,3.328,7.066,5.24a7.123,7.123,0,0,0,3.144,1.814,40.583,40.583,0,0,0-5.031-6.208,45.689,45.689,0,0,0-8.733-6.692c-1.869-.833-7.783-1.244-12.017-.8C180.132,87.539,175.211,89.4,181.584,89.6Z" transform="translate(-131.548 -83.903)" fill="#e2c59c"/>
              <path id="Path_3807" data-name="Path 3807" d="M181.472,87.038s6.723,2.028,7.887,3.009c.809.674,4.155,4.6,4.155,4.6a8.691,8.691,0,0,1-3.94-2C188.152,91.156,181.472,87.038,181.472,87.038Z" transform="translate(-116.569 -82.943)" fill="#e2c59c"/>
            </g>
            <path id="Path_3808" data-name="Path 3808" d="M185.957,85.857s-17.171.509-16.344,11.19c.466,6.067,4.314,8.3,9.5,8.059,9.652-.472,20.6-1.544,20.6-1.544L205.126,87.2Z" transform="translate(-169.584 -85.857)" fill="#e8b00e"/>
          </g>
          <path id="Path_3809" data-name="Path 3809" d="M192.69,138.184,177.707,82.822s-2.206-8.114-6.33-6.753c-5.957,1.961-3.254,8.628-2.874,12.538.791,7.973-.018,11.4,4.768,30.72,2.96,11.913,5.4,25.6,8.065,33.466,1.832,5.417,5.509-2.114,10.755-4.069C201.888,145.084,192.69,138.184,192.69,138.184Z" transform="translate(-167.563 -75.915)" fill="#e8b00e"/>
        </g>
        <path id="Path_3810" data-name="Path 3810" d="M202.974,97.038a21.581,21.581,0,0,1-25.959,16.828c-11.754-2.758-19.2-14.763-16.613-26.817A21.57,21.57,0,0,1,186.36,70.228C198.114,72.979,205.553,84.984,202.974,97.038Z" transform="translate(-147.201 -48.545)" fill="#282723"/>
        <path id="Path_3811" data-name="Path 3811" d="M199.249,102.327c-1.979,9.253-10.755,15.075-19.592,13l-2.3-8.9c-8.843-2.071-14.4-11.257-12.422-20.511l1.348-6.281c1.979-9.254,10.755-15.075,19.6-13l4,.938c8.837,2.071,14.4,11.257,12.422,20.511Z" transform="translate(-123.389 -66.212)" fill="#282723"/>
        <path id="Path_3812" data-name="Path 3812" d="M198.038,67.839a35.894,35.894,0,0,1-1.4,4.633c-3.922,10.381-11.919,17.085-18.96,16.491a53.507,53.507,0,0,1-5.05,12.446c-2.182,3.953-7.887,7.317-7.887,7.317-2.77,7.243,24.929,31.5,26.118,30.874,2.513-1.348-1.992-18.771-6.526-24.169-2.126-2.531-4.29-5.515-4.339-7.219-.159-5.981,1.655-7.25,4.406-9.989a12.92,12.92,0,0,1,10.35-2.445,1.8,1.8,0,0,0,1.483-.3,12.3,12.3,0,0,0,1.25-3.389l2.96-13.813A12.568,12.568,0,0,0,198.038,67.839Z" transform="translate(-123.299 -57.867)" fill="#e9d6b8"/>
        <path id="Path_3813" data-name="Path 3813" d="M165.327,179.282s7.1,6.729,9.094,7.329c2.666.8,10.142-2.586,10.142-2.586s-2.059-34.881-1.293-48.707,3.867-17.821,3.517-22.092c-.576-6.821,4.719-10.308,3.156-15.51s-5.491-23.906-5.76-21.308c-2.3,22.11-10.406,5.062-12.023,2.39C171.271,77.328,165.327,179.282,165.327,179.282Z" transform="translate(-119.311 -15.181)" fill="#387bff"/>
        <path id="Path_3814" data-name="Path 3814" d="M169.177,75.684s9.388,7.207,9.266,10.534,4.847,13.169,2.831,27.957c-2.3,16.889-3.162,28.226-2.69,39s5.215,20.107,5.374,33.368c.129,10.387-2.145,11.313-2.145,11.313A7.934,7.934,0,0,1,173.755,196c-3.683-3.548-3.027-39.1-2.47-48.057s3.223-30.028,3.842-36.181a68.072,68.072,0,0,0-.766-17.287,76.355,76.355,0,0,0-3.94-14.989c-.184-.478-2.629-2.525-2.782-2.9C166.971,74.973,168.411,74.783,169.177,75.684Z" transform="translate(-108.337 -20.388)" fill="#fec00f"/>
        <path id="Path_3815" data-name="Path 3815" d="M203.565,103.017a22.54,22.54,0,0,1-27.111,17.569c-12.281-2.874-20.051-15.418-17.361-28.006A22.548,22.548,0,0,1,186.21,75.006C198.485,77.892,206.256,90.43,203.565,103.017Z" transform="translate(-154.007 -24.153)" fill="#282723"/>
        <path id="Path_3816" data-name="Path 3816" d="M177.121,112.464l-4.26,34.2,18.416,8.846,10.224,2.256-18.144-14.179,5.936-30.861Z" transform="translate(-80.679 170.979)" fill="#e9d6b8"/>
        <path id="Path_3817" data-name="Path 3817" d="M172.663,125.773l4,1.091,2.684-2.525,14.714,7.476,13.047,3.125a2.631,2.631,0,0,0-.276-1.648c-1.642-2.163-10.779-6.992-10.779-6.992s-.147,3.174-1.446,3.26-12.569-5.9-15.179-7.562c-4.486-2.874-5.325-4.651-5.668-4.437C172.847,118.156,172.663,125.773,172.663,125.773Z" transform="translate(-81.691 197.028)" fill="#161711"/>
        <path id="Path_3818" data-name="Path 3818" d="M180.809,107.674l14.628,29.15,20.24-1.041,10.065-2.927-22.348-3.827-12.2-24.907Z" transform="translate(-39.916 128.198)" fill="#e9d6b8"/>
        <path id="Path_3819" data-name="Path 3819" d="M185.66,119.264l4.026-.962,1.269-3.536,18.145-.27,10.835-2.574a9.16,9.16,0,0,0-2.12-1.826c-2.408-1.017-10.976-1.544-10.976-1.544s.9,2.482-.215,3.193-13.58,1.134-16.632.907c-5.246-.38-6.778-1.557-6.98-1.2C182.467,112.413,185.66,119.264,185.66,119.264Z" transform="translate(-28.938 150.915)" fill="#161711"/>
        <path id="Path_3820" data-name="Path 3820" d="M184.939,90.476l10.914,4.97,4.749,14.91,70.216-12.1s7.158-2.3,11.711,9.517c6.484,16.84,22.981,69.175,22.981,69.175l-10.448,11.429-32.749-59.137s-67.115,32.957-89.244,25.842c-8.493-2.727-14.977-18.427-13.764-34.287a212.866,212.866,0,0,1,3.321-23.851Z" transform="translate(-150.946 58.219)" fill="#194866"/>
        <path id="Path_3821" data-name="Path 3821" d="M164.914,127.263l53.707-4.045L214,209.969l15.835.527L241.54,108.9s-3.162-15.124-13.414-12.845S193.048,118.249,164.914,127.263Z" transform="translate(-121.429 85.648)" fill="#163f59"/>
        <path id="Path_3822" data-name="Path 3822" d="M178.341,257.462s24.194-35.323,29.317-54.216c6.11-22.545,2.163-49.368,2.7-58.475.993-16.748.772-49.05.987-53.07s-2.715-8.138-2.715-8.138-2.984-10.24-8.4-9.486c-4.761.662-12.109,7.6-16.717,10.816-4.5,3.15-4,62.158-4.222,65.13-.815,10.718-7.293,21.13-11.515,31.6-9.958,24.69-9.958,52.31-9.958,52.31S161.746,253.822,178.341,257.462Z" transform="translate(-157.818 -26.08)" fill="#fec00f"/>
        <g id="Group_2092" data-name="Group 2092" transform="translate(36.751 126.948)">
          <path id="Path_3823" data-name="Path 3823" d="M163.815,96.782s.582,4.314,22.656,1.765,53.958-11.49,53.958-11.49l-51.415,1.348S169.367,89.815,163.815,96.782Z" transform="translate(-163.815 -86.263)" fill="#e9d6b8"/>
          <path id="Path_3824" data-name="Path 3824" d="M176.587,91.276c10.534-.907,15.406,3.726,19.7,4.927a73.9,73.9,0,0,1,8.616,3.174c-2.654-4.081-6.061-3.916-7.862-5.16s-1.311-.582,2.415-1.17c2.12-.331,6.122,2.923,8.972,4.67a8.7,8.7,0,0,0,3.934,1.532,44.068,44.068,0,0,0-6.674-6,53.345,53.345,0,0,0-11.11-6.006c-2.31-.643-9.37-.27-14.334.8C174.626,89.248,169,91.926,176.587,91.276Z" transform="translate(-117.18 -86.927)" fill="#e9d6b8"/>
          <path id="Path_3825" data-name="Path 3825" d="M176.355,87.019s8.2,1.262,9.683,2.151c1.042.619,5.448,4.382,5.448,4.382a10.655,10.655,0,0,1-4.9-1.612C184.732,90.537,176.355,87.019,176.355,87.019Z" transform="translate(-99.508 -86.458)" fill="#e9d6b8"/>
        </g>
        <path id="Path_3826" data-name="Path 3826" d="M190.015,97.657l-28.1-10.547s1.955,17.049,2.6,23.526-.974,16.031,4.234,16.711,7.82-.343,2.929,3.407-3.254,6.821-.974,9.211-5.215,28.98-5.215,28.98.741.4,2.935,1.7c6.943-11.484,15.553-24.519,18.244-34.44C190.143,123.395,190.364,109.2,190.015,97.657Z" transform="translate(-136.828 40.958)" fill="#e8b00e"/>
        <path id="Path_3827" data-name="Path 3827" d="M184.4,145.264,181.947,90.65s-2.813-11.441-6.913-14.07c-4.86-3.113-11.545,2.66-11.545,2.66s-3.426,8.53-1.128,48.8c1.538,26.933,3.91,40.881,16.111,38.908,11.386-1.832,24.243-4.5,24.243-4.5l4.565-18.378Z" transform="translate(-138.585 -17.767)" fill="#fec00f"/>
      </g>
      <g id="Group_2096" data-name="Group 2096" transform="translate(112.975 80.421)">
        <path id="Path_3828" data-name="Path 3828" d="M172.492,91.576l-.043-.086.043-2.715H279.642V91.49a.127.127,0,0,1,0,.086l-.27.5c-1.379,2.347-3.849,2.77-6.68,2.77H179.447c-2.831,0-5.3-.423-6.68-2.77Z" transform="translate(-172.449 -30.925)" fill="#d0dee6"/>
        <path id="Path_3829" data-name="Path 3829" d="M197.47,91.137s.018.049,0,.074l-.263.411A4.479,4.479,0,0,1,195.638,93H179.343c-2.721,0-5.1-.337-6.422-2.237l-.257-.417-.049-.067.031-1.33H197.47Z" transform="translate(-171.603 -30.033)" fill="#b6c2c9"/>
        <g id="Group_2094" data-name="Group 2094" transform="translate(40.331 58.479)">
          <rect id="Rectangle_373" data-name="Rectangle 373" width="53.541" height="1.915" fill="#b6c2c9"/>
        </g>
        <g id="Group_2095" data-name="Group 2095" transform="translate(26.461)">
          <path id="Path_3830" data-name="Path 3830" d="M176.767,137.087l13.893-55.11a3.531,3.531,0,0,1,3.174-2.641h75.18a1.948,1.948,0,0,1,1.851,2.641l-13.893,55.11Z" transform="translate(-176.767 -79.335)" fill="#d7dfe2"/>
          <path id="Path_3831" data-name="Path 3831" d="M183.845,88.32c-.711,2.807.9,5.092,3.585,5.092a6.848,6.848,0,0,0,6.153-5.092c.7-2.819-.895-5.1-3.585-5.1A6.845,6.845,0,0,0,183.845,88.32Z" transform="translate(-141.334 -59.438)" fill="#b6c2c9"/>
        </g>
      </g>
      <path id="Path_3832" data-name="Path 3832" d="M222.822,274.18H233.79l-18.1-183.454h-15.9Z" transform="translate(80.753 59.503)" fill="#93cef5"/>
      <path id="Path_3833" data-name="Path 3833" d="M199.966,99.182l6.976,55.558,8.272-59.874-.406-4.139h-13.9Z" transform="translate(81.639 59.503)" fill="#86bbd8"/>
      <path id="Path_3834" data-name="Path 3834" d="M206.443,274.18h10.965L199.314,90.726h-15.9Z" transform="translate(-3.253 59.503)" fill="#93cef5"/>
      <path id="Path_3835" data-name="Path 3835" d="M183.585,99.182l6.974,55.558,8.277-59.874-.41-4.139h-13.9Z" transform="translate(-2.365 59.503)" fill="#86bbd8"/>
      <path id="Path_3836" data-name="Path 3836" d="M177.559,274.18H166.591l18.1-183.454h15.9Z" transform="translate(-89.517 59.503)" fill="#93cef5"/>
      <path id="Path_3837" data-name="Path 3837" d="M189.776,99.182,168.492,155.8l6.036-60.933.408-4.139h13.9Z" transform="translate(-79.765 59.503)" fill="#86bbd8"/>
      <rect id="Rectangle_374" data-name="Rectangle 374" width="132.225" height="10.722" transform="translate(79.819 144.272)" fill="#73a9ff"/>
      <rect id="Rectangle_375" data-name="Rectangle 375" width="150.143" height="10.722" transform="translate(205.93 144.272)" fill="#8cc3ff"/>
      <path id="Path_3838" data-name="Path 3838" d="M169.949,73.477s7.164,9.891,8.469,19.1-2.28,59-2.28,59l-2.562-43.749,1.906-6.723-3.254-.68s-2.929-17.048-5.215-19.776-2.6-3.75-2.6-3.75Z" transform="translate(-100.704 -28.954)" fill="#e8b00e"/>
      <path id="Path_3839" data-name="Path 3839" d="M167.07,74.427s9.425,21.8,9.75,32.712-3.254,38.534-3.254,38.534L180.1,101.33l-2.61-4.431,1.955-.68s-6.821-16.037-7.489-16.711C168.13,75.659,167.07,74.427,167.07,74.427Z" transform="translate(-87.058 -24.083)" fill="#e8b00e"/>
    </g>
    <g id="Group_2104" data-name="Group 2104" transform="translate(533.999 156.71)">
      <path id="Path_3840" data-name="Path 3840" d="M234.966,124.244l-1.71,9.3h-9.064s-.5-1.318-1.262-1.318c-.65,0-1.483,1.318-2.365,1.318H197.51s-.411-1.955.092-2.635a8.75,8.75,0,0,1,2.782-1.244c4.682-1.373,18.084-5.675,20.413-10.363C223.635,113.612,234.966,124.244,234.966,124.244Z" transform="translate(-197.352 177.071)" fill="#161711"/>
      <path id="Path_3841" data-name="Path 3841" d="M220.881,103.439s2.6,15.2,4.749,34.612c1.587,14.254,1.63,54.976-.882,83.263-.153,1.728-17.33-3.536-17.33-3.536s-6.269-79.17-7.709-96.892S210.573,92.39,220.881,103.439Z" transform="translate(-185.86 81.35)" fill="#163f59"/>
      <path id="Path_3842" data-name="Path 3842" d="M208.094,119.243c-.686-.864-.184-3.138-.184-3.138s11.932-1.391,15.768-.441a19.2,19.2,0,0,1,4.265,2.1c.27.159.741,1.121,1.005,1.275.478.3.729-.2,1.14.061a14.675,14.675,0,0,1,1.82,1.324c1.054,5.73-.343,8.04-.343,8.04s-9.823,3.2-12.06,1.072C213.812,124.145,209.59,121.142,208.094,119.243Z" transform="translate(-144.118 165.294)" fill="#161711"/>
      <path id="Path_3843" data-name="Path 3843" d="M214.19,102.745s-9.5-5.809-7.084,9.787c5.846,37.621,11.214,65.2,13.733,77.7.981,4.853,2.476,4.081,2.476,4.081l10.92,1.857,5.515-3.934-10.2-85.04Z" transform="translate(-149.356 95.317)" fill="#163f59"/>
      <g id="Group_2098" data-name="Group 2098" transform="translate(17.857)">
        <path id="Path_3844" data-name="Path 3844" d="M203.924,121.882c1.44,1.955,50.355,27.828,52.61,27.828h40.213c2.261,0,18.611-2.5,22.153-13.745,3.75-11.895,0-33.08,0-33.08a4.283,4.283,0,0,0-4.088-4.455h-50.1c-2.261,0-6.815,1.992-6.815,4.455l-48.645-1.63S193.279,107.389,203.924,121.882Z" transform="translate(-200.266 78.619)" fill="#194866"/>
        <path id="Path_3845" data-name="Path 3845" d="M288.532,113.917H242.5c-.49,0-40.231-11.349-40.679-11.478l4.8,16.16c0,2.464,39.7,10.553,41.953,10.553h40.213c2.261,0,18.611-2.5,22.153-13.745a45.917,45.917,0,0,0,1.655-12.63C306.837,111.809,290.9,113.917,288.532,113.917Z" transform="translate(-192.303 99.178)" fill="#163f59"/>
        <path id="Path_3846" data-name="Path 3846" d="M223.81,126.82l-2.169-10.277s-7.654.558-9.137-3.37c-3-7.881-.49-20.474,1.318-24.01,5.16-10.05,7.348-27.644,31.468-13.653,9.174,5.325-4.994,31.131-6.048,36.72s2.084,12.017,2.084,12.017l-5.644,4.038Z" transform="translate(-144.665 -65.574)" fill="#e9d6b8"/>
        <path id="Path_3847" data-name="Path 3847" d="M213.119,91.048l41.365,15.369s-48.78,3.671-48.964.7C204.491,90.809,213.119,91.048,213.119,91.048Z" transform="translate(-173.759 40.763)" fill="#e9d6b8"/>
        <path id="Path_3848" data-name="Path 3848" d="M227.3,81.167s8.23,4.087,14.15,37.247S243.6,150.3,243.6,150.3l-1.079,7.556L227.145,159.2l-8.31-28.625Z" transform="translate(-105.042 -9.908)" fill="#0253a2"/>
        <path id="Path_3849" data-name="Path 3849" d="M278.757,93.154l-20.266-8.769-5.589-5.05-21.534-.49-3.775,5.926L210.9,91.677s-4.118,6.177-.533,29.115c3.965,25.42-.067,91.175-.067,91.175l68.157,1.017S272.837,105.49,278.757,93.154Z" transform="translate(-155.986 -21.816)" fill="#0253a2"/>
        <path id="Path_3850" data-name="Path 3850" d="M242.922,81.547s-3.757-4-12.9,6.857c-15.608,18.507-23.164,41.457-24.776,45.9s-3.438,15.406,2.948,22.784c4.878,5.65,9.591,3.554,9.591,3.554l14.9-12.2-4.792-2.537-3.266-.251a246.467,246.467,0,0,0,18.3-27.295C251,104.062,242.922,81.547,242.922,81.547Z" transform="translate(-182.64 -11.643)" fill="#0253a2"/>
        <path id="Path_3851" data-name="Path 3851" d="M222.159,96.08s2.727-1.6,3.144.4-1.048,6.4-2.3,6.808-1.673,5.8-1.673,5.8l3.352,6.006h16.987s5.246-2.2,5.669-5.8,4.608-29.011,4.608-29.011l-11.95-6.006a81.576,81.576,0,0,0-10.7-4.2c-6.759-1.845-8.181,1.6-7.967,3.4s-1.887,2-4.615,2-6.085,2-4.614,3.2c.607.5-2.1,2.077-1.036,3.989,1.544,2.727,6.692,3.616,7.115,8.022C218.366,92.673,219.23,99.279,222.159,96.08Z" transform="translate(-146.196 -69.539)" fill="#194866"/>
      </g>
      <g id="Group_2102" data-name="Group 2102" transform="translate(43.006 227.533)">
        <path id="Path_3852" data-name="Path 3852" d="M204.749,123.4c-.159-.809-.251-5.859-.251-6.729,0-5.528,3.413-10.007,7.623-10.007h84.924c4.21,0,7.623,4.48,7.623,10.007,0,.87-.092,5.92-.251,6.729Z" transform="translate(-203.714 -106.668)" fill="#8cc3ff"/>
        <path id="Path_3853" data-name="Path 3853" d="M306.109,112.405c0,1.691-.944,3.058-2.108,3.058H206.478c-1.164,0-2.108-1.367-2.108-3.058h0c0-1.691.944-3.064,2.108-3.064H304c1.164,0,2.108,1.373,2.108,3.064Z" transform="translate(-204.37 -92.96)" fill="#0253a2"/>
        <g id="Group_2101" data-name="Group 2101" transform="translate(11.055 42.002)">
          <g id="Group_2099" data-name="Group 2099" transform="translate(4.251 24.807)">
            <path id="Path_3854" data-name="Path 3854" d="M218.873,117.57l-5.221,8.334,43.865,14.708s2.929-2.935-7.832-8.825C237.154,124.924,218.873,117.57,218.873,117.57Z" transform="translate(-172.076 -117.57)" fill="#88bdda"/>
            <path id="Path_3855" data-name="Path 3855" d="M245.876,117.57,251.1,125.9l-43.865,14.708s-2.929-2.935,7.832-8.825C227.6,124.924,245.876,117.57,245.876,117.57Z" transform="translate(-206.868 -117.57)" fill="#88bdda"/>
          </g>
          <rect id="Rectangle_376" data-name="Rectangle 376" width="9.165" height="34.165" transform="translate(42.572)" fill="#88bdda"/>
          <g id="Group_2100" data-name="Group 2100" transform="translate(9.279 26.56)">
            <path id="Path_3856" data-name="Path 3856" d="M218.344,117.856l-4.474,7.954,37.553,14.04s2.506-2.8-6.7-8.426C233.989,124.873,218.344,117.856,218.344,117.856Z" transform="translate(-175.987 -117.856)" fill="#acd5f4"/>
            <path id="Path_3857" data-name="Path 3857" d="M241.079,117.856l4.467,7.954L208,139.85s-2.506-2.8,6.7-8.426C225.434,124.873,241.079,117.856,241.079,117.856Z" transform="translate(-207.688 -117.856)" fill="#acd5f4"/>
          </g>
          <path id="Path_3858" data-name="Path 3858" d="M219.3,124.75a3.19,3.19,0,1,0,3.187-3.334A3.261,3.261,0,0,0,219.3,124.75Z" transform="translate(-138.841 -73.04)" fill="#0253a2"/>
          <path id="Path_3859" data-name="Path 3859" d="M207.432,124.75a3.187,3.187,0,1,0,3.187-3.334A3.261,3.261,0,0,0,207.432,124.75Z" transform="translate(-199.723 -73.04)" fill="#0253a2"/>
          <path id="Path_3860" data-name="Path 3860" d="M220.562,124.75a3.19,3.19,0,1,0,3.187-3.334A3.261,3.261,0,0,0,220.562,124.75Z" transform="translate(-132.39 -73.04)" fill="#0253a2"/>
          <path id="Path_3861" data-name="Path 3861" d="M206.174,124.75a3.187,3.187,0,1,0,3.18-3.334A3.256,3.256,0,0,0,206.174,124.75Z" transform="translate(-206.174 -73.04)" fill="#0253a2"/>
        </g>
        <rect id="Rectangle_377" data-name="Rectangle 377" width="6.704" height="12.286" transform="translate(54.975 29.484)" fill="#0253a2"/>
        <path id="Path_3862" data-name="Path 3862" d="M212.52,116.148a6.693,6.693,0,0,0,6.539,6.839h3.689a6.693,6.693,0,0,0,6.539-6.839h0a6.7,6.7,0,0,0-6.539-6.845h-3.689a6.7,6.7,0,0,0-6.539,6.845Z" transform="translate(-162.576 -93.155)" fill="#0253a2"/>
        <path id="Path_3863" data-name="Path 3863" d="M207.014,123.4c-.165-.809-.257-5.859-.257-6.729,0-5.528,3.413-10.007,7.623-10.007h84.93c4.21,0,7.617,4.48,7.617,10.007,0,.87-.092,5.92-.251,6.729Z" transform="translate(-192.129 -106.668)" fill="#69adfe"/>
        <path id="Path_3864" data-name="Path 3864" d="M308.369,112.405c0,1.691-.944,3.058-2.108,3.058H208.743c-1.164,0-2.114-1.367-2.114-3.058h0c0-1.691.95-3.064,2.114-3.064H306.26c1.164,0,2.108,1.373,2.108,3.064Z" transform="translate(-192.786 -92.96)" fill="#0063cb"/>
      </g>
      <g id="Group_2103" data-name="Group 2103" transform="translate(56.252 115.246)">
        <path id="Path_3865" data-name="Path 3865" d="M298.377,147.616a4.32,4.32,0,0,1-4.222,4.455H213.907a5.425,5.425,0,0,1-5.068-4.424,164.348,164.348,0,0,1,0-54.884,5.413,5.413,0,0,1,5.068-4.418h80.248a4.316,4.316,0,0,1,4.222,4.455Q298.147,120.193,298.377,147.616Z" transform="translate(-206.532 -88.345)" fill="#8cc3ff"/>
        <path id="Path_3866" data-name="Path 3866" d="M299.042,147.61a4.363,4.363,0,0,1-4.259,4.461H214.535a5.369,5.369,0,0,1-5.031-4.424,172.8,172.8,0,0,1,0-54.878,5.369,5.369,0,0,1,5.031-4.425h80.248a4.367,4.367,0,0,1,4.259,4.461Z" transform="translate(-202.533 -88.345)" fill="#69adfe"/>
      </g>
      <path id="Path_3867" data-name="Path 3867" d="M221.759,222.539c12.354-43.289-11.2-86.585-1.073-129.88A3.171,3.171,0,0,0,217.5,88.5h-1.44a5.766,5.766,0,0,0-5.337,4.155c-10.13,43.3,13.433,86.591,1.079,129.88Z" transform="translate(-142.138 27.717)" fill="#0063cb"/>
      <path id="Path_3868" data-name="Path 3868" d="M233.229,222.539c12.354-43.289-11.208-86.585-1.072-129.88A3.171,3.171,0,0,0,228.97,88.5h-1.44a5.766,5.766,0,0,0-5.338,4.155c-10.13,43.3,13.433,86.591,1.079,129.88Z" transform="translate(-83.318 27.717)" fill="#0063cb"/>
    </g>
  </g>
</svg>
