<svg xmlns="http://www.w3.org/2000/svg" xmlns:xlink="http://www.w3.org/1999/xlink" width="698.086" height="499.627" viewBox="0 0 698.086 499.627">
  <defs>
    <linearGradient id="linear-gradient" x1="0.5" y1="0.133" x2="0.5" y2="1.621" gradientUnits="objectBoundingBox">
      <stop offset="0" stop-color="#c5c5c5"/>
      <stop offset="1" stop-color="#5b5b5a"/>
    </linearGradient>
    <linearGradient id="linear-gradient-2" x1="0.5" y1="-0.293" x2="0.5" y2="0.701" gradientUnits="objectBoundingBox">
      <stop offset="0" stop-color="#d7defa"/>
      <stop offset="1" stop-color="#0d3cfa"/>
    </linearGradient>
    <linearGradient id="linear-gradient-3" x1="0" y1="0.5" x2="1" y2="0.5" xlink:href="#linear-gradient"/>
    <linearGradient id="linear-gradient-4" x1="0.5" y1="-0.368" x2="0.5" y2="0.88" xlink:href="#linear-gradient-2"/>
    <linearGradient id="linear-gradient-5" x1="0.5" y1="-0.182" x2="0.5" y2="1.046" xlink:href="#linear-gradient"/>
    <linearGradient id="linear-gradient-6" x1="0.69" y1="0.709" x2="0.094" y2="0.169" xlink:href="#linear-gradient"/>
    <linearGradient id="linear-gradient-7" x1="0.66" y1="0.749" x2="0.258" y2="-0.049" xlink:href="#linear-gradient"/>
    <linearGradient id="linear-gradient-8" x1="0.197" y1="0.5" x2="1.197" y2="0.5" gradientUnits="objectBoundingBox">
      <stop offset="0.044" stop-color="#ff5773"/>
      <stop offset="1" stop-color="#ff5773" stop-opacity="0"/>
    </linearGradient>
    <linearGradient id="linear-gradient-9" x1="0.5" y1="-0.214" x2="0.5" y2="0.74" xlink:href="#linear-gradient-8"/>
    <linearGradient id="linear-gradient-11" x1="0.327" y1="0.666" x2="1.003" y2="0.257" xlink:href="#linear-gradient"/>
    <linearGradient id="linear-gradient-14" x1="0.537" y1="0.831" x2="0.371" y2="0.094" xlink:href="#linear-gradient"/>
    <linearGradient id="linear-gradient-15" x1="0" y1="0.5" x2="1" y2="0.5" xlink:href="#linear-gradient-8"/>
    <linearGradient id="linear-gradient-16" x1="0.5" y1="-0.061" x2="0.5" y2="1.181" xlink:href="#linear-gradient"/>
    <linearGradient id="linear-gradient-17" x1="0.702" y1="0.5" x2="1.089" y2="0.5" gradientUnits="objectBoundingBox">
      <stop offset="0.008" stop-color="#fff"/>
      <stop offset="1" stop-color="#c5c5c5"/>
    </linearGradient>
  </defs>
  <g id="Group_1767" data-name="Group 1767" transform="translate(-423.466 -125.218)">
    <g id="Group_1721" data-name="Group 1721" transform="translate(972.429 323.812)">
      <path id="Path_3354" data-name="Path 3354" d="M676.336,254.173l16.9-6.256a66.565,66.565,0,0,0-7.947-21.481l-16.907,6.256a48.321,48.321,0,0,0-10.19-11.011l7.521-16.357a62.625,62.625,0,0,0-20.809-9.569l-7.521,16.357a48.371,48.371,0,0,0-14.993-.569l-6.256-16.9a66.636,66.636,0,0,0-21.481,7.947l6.256,16.907a48.32,48.32,0,0,0-11.011,10.19l-16.357-7.521a62.775,62.775,0,0,0-9.569,20.809l16.357,7.524a48.265,48.265,0,0,0-.566,14.99l-16.906,6.256a66.637,66.637,0,0,0,7.947,21.481l16.906-6.256a48.327,48.327,0,0,0,10.19,11.011l-7.521,16.357a62.771,62.771,0,0,0,20.809,9.569l7.523-16.357a48.352,48.352,0,0,0,14.99.569l6.256,16.9a66.59,66.59,0,0,0,21.481-7.947l-6.256-16.907a48.323,48.323,0,0,0,11.011-10.19l16.357,7.521a62.612,62.612,0,0,0,9.569-20.808l-16.357-7.521A48.281,48.281,0,0,0,676.336,254.173Z" transform="translate(-562.862 -194.64)" fill="none" stroke="#fff" stroke-miterlimit="10" stroke-width="0.526"/>
      <path id="Path_3355" data-name="Path 3355" d="M611.854,235.382a16.807,16.807,0,1,1-8.247-22.29A16.808,16.808,0,0,1,611.854,235.382Z" transform="translate(-531.395 -163.173)" fill="none" stroke="#fff" stroke-miterlimit="10" stroke-width="0.526"/>
      <path id="Path_3356" data-name="Path 3356" d="M645.109,258.169a38.135,38.135,0,1,1-18.718-50.579A38.139,38.139,0,0,1,645.109,258.169Z" transform="translate(-545.271 -177.049)" fill="none" stroke="#fff" stroke-miterlimit="10" stroke-width="0.526"/>
    </g>
    <g id="Group_1722" data-name="Group 1722" transform="translate(423.764 254.535)">
      <path id="Path_3357" data-name="Path 3357" d="M484.54,229.956l16.907-6.256a66.592,66.592,0,0,0-7.95-21.481l-16.9,6.256A48.269,48.269,0,0,0,466.4,197.465l7.521-16.357a62.618,62.618,0,0,0-20.808-9.569L445.592,187.9a48.366,48.366,0,0,0-14.993-.569l-6.253-16.9a66.586,66.586,0,0,0-21.481,7.947l6.256,16.906a48.336,48.336,0,0,0-11.013,10.19l-16.354-7.521a62.617,62.617,0,0,0-9.569,20.808l16.357,7.521a48.28,48.28,0,0,0-.569,14.993l-16.907,6.256A66.644,66.644,0,0,0,379.016,269l16.907-6.256a48.32,48.32,0,0,0,10.19,11.011l-7.521,16.357a62.774,62.774,0,0,0,20.809,9.569l7.521-16.357a48.279,48.279,0,0,0,14.993.566L448.17,300.8a66.661,66.661,0,0,0,21.478-7.947l-6.253-16.907a48.321,48.321,0,0,0,11.011-10.19l16.357,7.521a62.665,62.665,0,0,0,9.566-20.811l-16.354-7.521A48.262,48.262,0,0,0,484.54,229.956Z" transform="translate(-371.066 -170.423)" fill="none" stroke="#fff" stroke-miterlimit="10" stroke-width="0.526"/>
      <path id="Path_3358" data-name="Path 3358" d="M420.057,211.166a16.806,16.806,0,1,1-8.247-22.29A16.807,16.807,0,0,1,420.057,211.166Z" transform="translate(-339.598 -138.957)" fill="none" stroke="#fff" stroke-miterlimit="10" stroke-width="0.526"/>
      <path id="Path_3359" data-name="Path 3359" d="M453.311,233.953A38.134,38.134,0,1,1,434.6,183.373,38.134,38.134,0,0,1,453.311,233.953Z" transform="translate(-353.474 -152.833)" fill="none" stroke="#fff" stroke-miterlimit="10" stroke-width="0.526"/>
    </g>
    <path id="Path_3364" data-name="Path 3364" d="M505.273,342.1H661.9s14.355-83.843,0-87.439-25.9,32.494-40.335,31.768-8.3-23.909-27.231-17.441-32.154,62.494-49.475,52.184S508.929,330.445,505.273,342.1Z" transform="translate(302.413 240.374)" fill="#0aab94"/>
    <g id="Group_1724" data-name="Group 1724" transform="translate(1040.067 471.131)">
      <path id="Path_3365" data-name="Path 3365" d="M586.506,357.478h34.643s61.859-100.521,23.2-110.728S586.506,357.478,586.506,357.478Z" transform="translate(-586.506 -246.138)" fill="#0aab94"/>
      <line id="Line_37" data-name="Line 37" x1="38.662" y2="110.727" transform="translate(19.178 0.612)" fill="none" stroke="#fff" stroke-linecap="round" stroke-linejoin="round" stroke-width="0.25"/>
    </g>
    <g id="Group_1737" data-name="Group 1737" transform="translate(546.376 210.924)">
      <path id="Path_3366" data-name="Path 3366" d="M638.906,296.456V249.7H554.482v46.752c0,18.054-24.3,34.108-60.449,39.938l-43.894,7.083c-6.668,1.076-11.148,4.036-11.148,7.366H754.4c0-3.33-4.483-6.291-11.148-7.366l-43.9-7.083C663.2,330.564,638.906,314.51,638.906,296.456Z" transform="translate(-367.292 20.703)" fill="#0d3cfa"/>
      <path id="Path_3367" data-name="Path 3367" d="M563.786,249.7H479.363v17.115l84.423,20.919Z" transform="translate(-292.173 20.703)" fill="#061c73"/>
      <rect id="Rectangle_341" data-name="Rectangle 341" width="458.804" height="276.765" rx="7.748" fill="#0d3cfa"/>
      <rect id="Rectangle_342" data-name="Rectangle 342" width="256.972" height="439.008" rx="4.288" transform="translate(448.906 9.897) rotate(90)" fill="#fff"/>
      <rect id="Rectangle_343" data-name="Rectangle 343" width="106.19" height="183.101" rx="3.948" transform="translate(326.567 53.1)" fill="#c1ccfa"/>
      <rect id="Rectangle_344" data-name="Rectangle 344" width="274.63" height="83.303" rx="2.704" transform="translate(39.697 57.094)" opacity="0.2" fill="url(#linear-gradient)"/>
      <rect id="Rectangle_345" data-name="Rectangle 345" width="274.629" height="83.303" rx="2.704" transform="translate(35.696 53.1)" fill="#ffdab0"/>
      <path id="Path_3368" data-name="Path 3368" d="M844.13,158.638H429.654A12.267,12.267,0,0,0,417.387,170.9v5.859H856.4V170.9A12.267,12.267,0,0,0,844.13,158.638Z" transform="translate(-407.489 -148.74)" fill="#d7defa"/>
      <g id="Group_1725" data-name="Group 1725" transform="translate(22.639 15.868)">
        <circle id="Ellipse_18" data-name="Ellipse 18" cx="3.093" cy="3.093" r="3.093" fill="none" stroke="#061c73" stroke-miterlimit="10" stroke-width="0.53"/>
        <circle id="Ellipse_19" data-name="Ellipse 19" cx="3.093" cy="3.093" r="3.093" transform="translate(17.189)" fill="none" stroke="#061c73" stroke-miterlimit="10" stroke-width="0.53"/>
        <circle id="Ellipse_20" data-name="Ellipse 20" cx="3.093" cy="3.093" r="3.093" transform="translate(34.378)" fill="none" stroke="#061c73" stroke-miterlimit="10" stroke-width="0.53"/>
      </g>
      <g id="Group_1726" data-name="Group 1726" transform="translate(50.675 64.782)">
        <path id="Path_3369" data-name="Path 3369" d="M484.354,187.082l-10.273-8.811a1.857,1.857,0,1,0-2.417,2.821l1.25,1.073-5.315,6.2a4.075,4.075,0,0,1-4.282,1.227,24.613,24.613,0,1,0-2.921,47.833,24.574,24.574,0,0,0,15.877-38.516,4.121,4.121,0,0,1,.149-5.106l4.265-4.975,1.25,1.073a1.856,1.856,0,1,0,2.417-2.818Z" transform="translate(-431.642 -177.824)" fill="#fff"/>
        <path id="Path_3370" data-name="Path 3370" d="M440.77,183.561c.215.017.426.037.638.063" transform="translate(-414.657 -167.149)" fill="none" stroke="#d7defa" stroke-linecap="round" stroke-linejoin="round" stroke-width="0.75"/>
        <path id="Path_3371" data-name="Path 3371" d="M435.286,189.791a18.948,18.948,0,0,1,11.631-6.191" transform="translate(-424.86 -167.076)" fill="none" stroke="#d7defa" stroke-linecap="round" stroke-linejoin="round" stroke-width="0.75"/>
        <path id="Path_3372" data-name="Path 3372" d="M434.3,187.779a20.964,20.964,0,1,0,40.544,7.775C457.519,198.961,452.184,185.179,434.3,187.779Z" transform="translate(-429.283 -159.912)" fill="url(#linear-gradient-2)"/>
        <line id="Line_38" data-name="Line 38" x2="3.154" y2="2.704" transform="translate(43.243 6.03)" fill="none" stroke="#d7defa" stroke-linecap="round" stroke-linejoin="round" stroke-width="0.75"/>
        <path id="Path_3373" data-name="Path 3373" d="M445.425,193.684a1.572,1.572,0,1,1-1.571-1.573A1.572,1.572,0,0,1,445.425,193.684Z" transform="translate(-411.845 -151.24)" fill="#d7defa"/>
        <circle id="Ellipse_21" data-name="Ellipse 21" cx="2.722" cy="2.722" r="2.722" transform="translate(11.696 39.722)" fill="#d7defa"/>
        <path id="Path_3374" data-name="Path 3374" d="M441.708,195.77a1.086,1.086,0,1,1-1.087-1.084A1.086,1.086,0,0,1,441.708,195.77Z" transform="translate(-416.951 -146.449)" fill="#d7defa"/>
      </g>
      <g id="Group_1727" data-name="Group 1727" transform="translate(121.346 69.311)">
        <path id="Path_3375" data-name="Path 3375" d="M505.681,184.35H458.82a2.473,2.473,0,0,1-2.474-2.472h0a2.473,2.473,0,0,1,2.474-2.472h46.861a2.472,2.472,0,0,1,2.472,2.472h0A2.472,2.472,0,0,1,505.681,184.35Z" transform="translate(-456.346 -179.407)" fill="#ff2b4f"/>
        <path id="Path_3376" data-name="Path 3376" d="M621.839,188.736H458.82a2.473,2.473,0,0,1-2.474-2.472h0a2.473,2.473,0,0,1,2.474-2.472H621.839a2.473,2.473,0,0,1,2.474,2.472h0A2.473,2.473,0,0,1,621.839,188.736Z" transform="translate(-456.346 -171.246)" fill="#fff"/>
        <path id="Path_3377" data-name="Path 3377" d="M621.839,192.357H458.82a2.473,2.473,0,0,1-2.474-2.474h0a2.473,2.473,0,0,1,2.474-2.472H621.839a2.473,2.473,0,0,1,2.474,2.472h0A2.473,2.473,0,0,1,621.839,192.357Z" transform="translate(-456.346 -164.514)" fill="#fff"/>
        <path id="Path_3378" data-name="Path 3378" d="M621.839,195.973H458.82a2.473,2.473,0,0,1-2.474-2.472h0a2.473,2.473,0,0,1,2.474-2.472H621.839a2.473,2.473,0,0,1,2.474,2.472h0A2.473,2.473,0,0,1,621.839,195.973Z" transform="translate(-456.346 -157.78)" fill="#fff"/>
        <path id="Path_3379" data-name="Path 3379" d="M547.09,202.592h-48.1a2.473,2.473,0,0,1-2.474-2.472h0a2.473,2.473,0,0,1,2.474-2.474h48.1a2.474,2.474,0,0,1,2.474,2.474h0A2.473,2.473,0,0,1,547.09,202.592Z" transform="translate(-381.597 -145.47)" fill="#f80"/>
      </g>
      <g id="Group_1736" data-name="Group 1736" transform="translate(35.696 152.898)">
        <rect id="Rectangle_346" data-name="Rectangle 346" width="274.63" height="83.303" rx="2.704" transform="translate(4 3.994)" opacity="0.2" fill="url(#linear-gradient-3)"/>
        <path id="Rectangle_347" data-name="Rectangle 347" d="M2.7,0H271.926a2.7,2.7,0,0,1,2.7,2.7V80.6a2.7,2.7,0,0,1-2.7,2.7H2.7A2.7,2.7,0,0,1,0,80.6V2.7A2.7,2.7,0,0,1,2.7,0Z" fill="#ffdab0"/>
        <g id="Group_1728" data-name="Group 1728" transform="translate(21.574 16.21)">
          <path id="Path_3380" data-name="Path 3380" d="M477.024,219.236h46.864a2.472,2.472,0,0,0,2.471-2.472h0a2.472,2.472,0,0,0-2.471-2.472H477.024a2.472,2.472,0,0,0-2.471,2.472h0A2.472,2.472,0,0,0,477.024,219.236Z" transform="translate(-358.395 -214.293)" fill="#ff2b4f"/>
          <path id="Path_3381" data-name="Path 3381" d="M436.419,223.622H599.44a2.47,2.47,0,0,0,2.471-2.472h0a2.472,2.472,0,0,0-2.471-2.472H436.419a2.472,2.472,0,0,0-2.472,2.472h0A2.471,2.471,0,0,0,436.419,223.622Z" transform="translate(-433.947 -206.132)" fill="#fff"/>
          <path id="Path_3382" data-name="Path 3382" d="M436.419,227.243H599.44a2.472,2.472,0,0,0,2.471-2.472h0a2.473,2.473,0,0,0-2.471-2.474H436.419a2.473,2.473,0,0,0-2.472,2.474h0A2.472,2.472,0,0,0,436.419,227.243Z" transform="translate(-433.947 -199.4)" fill="#fff"/>
          <path id="Path_3383" data-name="Path 3383" d="M436.419,230.859H599.44a2.472,2.472,0,0,0,2.471-2.472h0a2.472,2.472,0,0,0-2.471-2.472H436.419a2.472,2.472,0,0,0-2.472,2.472h0A2.472,2.472,0,0,0,436.419,230.859Z" transform="translate(-433.947 -192.666)" fill="#fff"/>
          <path id="Path_3384" data-name="Path 3384" d="M436.419,237.476h48.1A2.473,2.473,0,0,0,486.99,235h0a2.473,2.473,0,0,0-2.475-2.472h-48.1A2.472,2.472,0,0,0,433.947,235h0A2.472,2.472,0,0,0,436.419,237.476Z" transform="translate(-433.947 -180.354)" fill="#f80"/>
        </g>
        <g id="Group_1735" data-name="Group 1735" transform="translate(202.047 11.527)">
          <g id="Group_1732" data-name="Group 1732">
            <line id="Line_39" data-name="Line 39" x1="0.007" y2="5.148" transform="translate(26.271)" fill="none" stroke="#fff" stroke-linecap="round" stroke-linejoin="round" stroke-width="0.864"/>
            <line id="Line_40" data-name="Line 40" x2="2.568" y2="4.462" transform="translate(13.071 3.638)" fill="none" stroke="#fff" stroke-linecap="round" stroke-linejoin="round" stroke-width="0.864"/>
            <g id="Group_1729" data-name="Group 1729" transform="translate(3.452 13.392)">
              <line id="Line_41" data-name="Line 41" x2="4.455" y2="2.58" stroke-width="0.864" stroke="#fff" stroke-linecap="round" stroke-linejoin="round" fill="none"/>
              <line id="Line_42" data-name="Line 42" x2="4.455" y2="2.58" transform="translate(40.938 23.636)" fill="none" stroke="#fff" stroke-linecap="round" stroke-linejoin="round" stroke-width="0.864"/>
            </g>
            <g id="Group_1730" data-name="Group 1730" transform="translate(0 26.649)">
              <line id="Line_43" data-name="Line 43" x2="5.148" y2="0.007" stroke-width="0.864" stroke="#fff" stroke-linecap="round" stroke-linejoin="round" fill="none"/>
              <line id="Line_44" data-name="Line 44" x2="5.149" y2="0.007" transform="translate(47.271)" fill="none" stroke="#fff" stroke-linecap="round" stroke-linejoin="round" stroke-width="0.864"/>
            </g>
            <g id="Group_1731" data-name="Group 1731" transform="translate(3.638 13.652)">
              <line id="Line_45" data-name="Line 45" y1="2.568" x2="4.462" transform="translate(0 23.636)" fill="none" stroke="#fff" stroke-linecap="round" stroke-linejoin="round" stroke-width="0.864"/>
              <line id="Line_46" data-name="Line 46" y1="2.568" x2="4.462" transform="translate(40.938)" fill="none" stroke="#fff" stroke-linecap="round" stroke-linejoin="round" stroke-width="0.864"/>
            </g>
            <line id="Line_47" data-name="Line 47" y1="4.455" x2="2.58" transform="translate(37.028 4.08)" fill="none" stroke="#fff" stroke-linecap="round" stroke-linejoin="round" stroke-width="0.864"/>
          </g>
          <g id="Group_1734" data-name="Group 1734" transform="translate(10.597 10.15)">
            <path id="Rectangle_348" data-name="Rectangle 348" d="M0,0H7.916a0,0,0,0,1,0,0V3.678a.436.436,0,0,1-.436.436H.435A.435.435,0,0,1,0,3.678V0A0,0,0,0,1,0,0Z" transform="translate(11.656 45.986)" fill="#061c73"/>
            <path id="Path_3385" data-name="Path 3385" d="M531.966,231.8a15.614,15.614,0,1,0-28.055,9.374,15.978,15.978,0,0,1,3.115,8.044l.583,5.578,17.59.031.638-5.887a15.908,15.908,0,0,1,3.027-7.867A15.443,15.443,0,0,0,531.966,231.8Z" transform="translate(-500.739 -216.204)" fill="#fff"/>
            <path id="Path_3386" data-name="Path 3386" d="M504.813,245.082V222.609c0-.821.42-1.485.941-1.485.318,0,.584.266.752.647.172-.381.438-.647.755-.647s.586.266.755.647c.169-.381.438-.647.755-.647s.584.266.755.647c.169-.381.435-.647.752-.647s.586.266.755.647c.172-.381.438-.647.755-.647.52,0,.941.664.941,1.485v22.7" transform="translate(-493.159 -207.049)" fill="none" stroke="#f5e52f" stroke-linecap="round" stroke-linejoin="round" stroke-width="0.199"/>
            <rect id="Rectangle_349" data-name="Rectangle 349" width="18.137" height="9.462" rx="0.348" transform="translate(6.545 38.147)" fill="url(#linear-gradient-4)"/>
            <g id="Group_1733" data-name="Group 1733" transform="translate(6.545 40.879)">
              <line id="Line_48" data-name="Line 48" x2="18.137" fill="none" stroke="#061c73" stroke-miterlimit="10" stroke-width="0.302"/>
              <line id="Line_49" data-name="Line 49" x2="18.137" transform="translate(0 1.999)" fill="none" stroke="#061c73" stroke-miterlimit="10" stroke-width="0.302"/>
              <line id="Line_50" data-name="Line 50" x2="18.137" transform="translate(0 3.997)" fill="none" stroke="#061c73" stroke-miterlimit="10" stroke-width="0.302"/>
            </g>
          </g>
        </g>
      </g>
    </g>
    <path id="Path_3387" data-name="Path 3387" d="M544.545,173.276h87.631c13.611,0,19.95-10.622,12.038-15.983s-18.56-5.361-31.176-16.5-28.195-13.2-36.122-5.361c-8.13,8.038-13.708,22.27-27.425,26.184C536.73,165.257,535.022,173.276,544.545,173.276Z" transform="translate(364.191 10.257)" fill="#fff"/>
    <path id="Path_3388" data-name="Path 3388" d="M434.37,182.372H590.536c27.729,0,20.388-8.156,10.6-12.232s-23.649-1.224-30.58-11.417-17.533-18.348-31.4-18.757-22.428-15.9-41.591-14.678-22.834,30.852-42.678,37.377C433.383,169.736,390.332,182.372,434.37,182.372Z" transform="translate(134.971 0)" fill="#fff"/>
    <g id="Group_1738" data-name="Group 1738" transform="translate(911.997 388.072)">
      <path id="Path_3389" data-name="Path 3389" d="M541.737,411.5H682.8s7.836-28.2,8.25-47.453-13.2-27.912-11.961-50.594,25.98-93.507,5.773-96.239-38.353,44.758-47.836,52.765-19.67,21.14-24.267,36.843-8.268,32.615-29.891,44.984C555.832,367.273,541.737,411.5,541.737,411.5Z" transform="translate(-541.737 -217.103)" fill="#337558"/>
      <path id="Path_3390" data-name="Path 3390" d="M639,217.367s-35.724,68.378-71.448,193.644" transform="translate(-493.708 -216.613)" fill="none" stroke="#fff" stroke-linecap="round" stroke-linejoin="round" stroke-width="0.25"/>
      <line id="Line_51" data-name="Line 51" x1="33.428" y2="41.141" transform="translate(117.267 23.672)" fill="none" stroke="#fff" stroke-linecap="round" stroke-linejoin="round" stroke-width="0.25"/>
      <line id="Line_52" data-name="Line 52" x2="2.663" y2="64.57" transform="translate(95.286 52.878)" fill="none" stroke="#fff" stroke-linecap="round" stroke-linejoin="round" stroke-width="0.25"/>
      <line id="Line_53" data-name="Line 53" x1="52.848" y2="43.053" transform="translate(85.898 111.084)" fill="none" stroke="#fff" stroke-linecap="round" stroke-linejoin="round" stroke-width="0.25"/>
      <line id="Line_54" data-name="Line 54" x2="23.933" y2="57.117" transform="translate(53.268 125.667)" fill="none" stroke="#fff" stroke-linecap="round" stroke-linejoin="round" stroke-width="0.25"/>
    </g>
    <path id="Path_3476" data-name="Path 3476" d="M723.7,0" transform="translate(397.856 582.469)" fill="none" stroke="#061c73" stroke-width="0.5"/>
    <g id="Group_1742" data-name="Group 1742" transform="translate(477.912 249.989)">
      <g id="Group_1740" data-name="Group 1740" transform="translate(5.491 5.161)" opacity="0.46">
        <ellipse id="Ellipse_22" data-name="Ellipse 22" cx="37.561" cy="37.561" rx="37.561" ry="37.561" transform="translate(0 74.144) rotate(-80.744)" fill="url(#linear-gradient-5)"/>
      </g>
      <g id="Group_1741" data-name="Group 1741" transform="translate(0 0)">
        <ellipse id="Ellipse_23" data-name="Ellipse 23" cx="37.561" cy="37.561" rx="37.561" ry="37.561" transform="translate(0 73.135) rotate(-76.793)" fill="#ff2b4f"/>
        <path id="Path_3399" data-name="Path 3399" d="M401.932,180.509v30.629a1.911,1.911,0,0,0,2.846,1.668l27.279-15.316a1.91,1.91,0,0,0,0-3.333l-27.279-15.316A1.911,1.911,0,0,0,401.932,180.509Z" transform="translate(-367.782 -150.675)" fill="#f5b3be"/>
      </g>
    </g>
    <g id="Group_1753" data-name="Group 1753" transform="translate(464.563 375.861)">
      <ellipse id="Ellipse_24" data-name="Ellipse 24" cx="28.292" cy="5.543" rx="28.292" ry="5.543" transform="translate(190.452 237.898)" fill="#c1ccfa"/>
      <path id="Path_3406" data-name="Path 3406" d="M637.4,298.692c0,4.949-55.834,8.962-124.711,8.962s-124.711-4.014-124.711-8.962,55.835-8.96,124.711-8.96S637.4,293.743,637.4,298.692Z" transform="translate(-380.399 -69.755)" fill="#c1ccfa"/>
      <g id="Group_1748" data-name="Group 1748" transform="translate(0 33.719)">
        <path id="Path_3407" data-name="Path 3407" d="M426.925,225.618c39.434-5.1,55.651,8.31,87.991,65.615,9.2,16.3,118.786,22.076,119.988,79.269S602.647,421.7,575.78,421.7H472.99c-49.664,0-87.662-30.326-87.662-105.59C385.328,274.08,398.35,229.311,426.925,225.618Z" transform="translate(-385.328 -224.622)" fill="#ff2b4f"/>
        <path id="Path_3408" data-name="Path 3408" d="M490.1,286.581c-11-19.5-20.139-33.9-28.958-44.237-5.409-4.4-41.883-32.28-58.661.578-7.175,14.057-5.172,61.613,14.14,82.533,22.307,24.164,57.514,37.157,98.676,38.8,37.069,1.473,23.918,51.458,56.493,52.831,20.654-1.01,39.2-8.4,38.3-51.232C608.887,308.657,499.3,302.881,490.1,286.581Z" transform="translate(-360.512 -219.971)" opacity="0.53" fill="url(#linear-gradient-6)"/>
        <path id="Path_3409" data-name="Path 3409" d="M403.273,232.24c-8.4,4.5-6,62.772,13.314,83.692,22.307,24.164,57.479,38.825,98.676,38.8" transform="translate(-360.477 -210.447)" fill="none" stroke="#fff" stroke-miterlimit="10" stroke-width="0.419"/>
      </g>
      <g id="Group_1752" data-name="Group 1752" transform="translate(47.076)">
        <path id="Path_3410" data-name="Path 3410" d="M462.953,279.034l-6.082,50.414a4.246,4.246,0,0,0,4.217,4.754h26.456c6.751,0,2.7-5.049-4.1-7.2-6.316-2-15.9-4.248-14.315-9.5,1.07-3.55,11.466-38.47,11.466-38.47Z" transform="translate(-299.343 -89.66)" fill="#ff9caf"/>
        <path id="Path_3411" data-name="Path 3411" d="M530.638,311.43c-8.4-3.45-11.978-6.173-15.041-9.374-2.566-2.68-25.489-31.015-25.489-31.015l-9.864,14.627,31.948,27.643a4.2,4.2,0,0,1,1.276,1.974l.6,2.011a7.607,7.607,0,0,0,7.074,5.43c9.34.266,27.262.478,27.042-1.845C547.886,317.743,539.037,314.88,530.638,311.43Z" transform="translate(-255.795 -104.535)" fill="#ff9caf"/>
        <path id="Path_3412" data-name="Path 3412" d="M492.009,290.634l.172.575a7.607,7.607,0,0,0,7.074,5.43c9.34.266,27.262.478,27.042-1.845-.3-3.135-9.149-6-17.547-9.449-.24-.1-.438-.189-.669-.286C502.805,289.971,496.154,290.74,492.009,290.634Z" transform="translate(-233.906 -78.45)" fill="#061c73"/>
        <path id="Path_3413" data-name="Path 3413" d="M417.255,281.07s10.258,24.4,45.854,25.4,72.592-8.8,72.592-8.8a7.205,7.205,0,0,0,4.4,4.4l-4.8,39.795a91.491,91.491,0,0,0,36.6-4.8c18.2-6.2,20.4-15.2,43.594-19.2,0,0-29.946-37.266-38-47.393-8.931-11.237-20.774-19.218-45.37-19.381s-80.242,2.686-80.242,2.686Z" transform="translate(-372.998 -141.667)" fill="#061c73"/>
        <path id="Path_3414" data-name="Path 3414" d="M480.707,255.418l-2.414-3.819c-14.876.626-26.407,1.219-26.407,1.219l-34.631,27.294a36.467,36.467,0,0,0,6.914,9.743c16.829.386,19.79-7.95,26.556-17.808C462.628,254.7,480.707,255.418,480.707,255.418Z" transform="translate(-372.998 -140.708)" opacity="0.25" fill="url(#linear-gradient-7)"/>
        <path id="Path_3415" data-name="Path 3415" d="M423.3,247.588,447,288.982l38.021,4.177,4.64-3.473-30.961-12.7s-17.928-27.9-24.748-36.582c-3.075-3.913-9-7.363-12.6-7.515S419.716,241.329,423.3,247.588Z" transform="translate(-368.934 -175.528)" fill="#ff9caf"/>
        <path id="Path_3416" data-name="Path 3416" d="M423.3,247.588,447,288.982l38.021,4.177,4.64-3.473-30.961-12.7s-17.928-27.9-24.748-36.582c-3.075-3.913-9-7.363-12.6-7.515S419.716,241.329,423.3,247.588Z" transform="translate(-368.934 -175.528)" fill="url(#linear-gradient-8)"/>
        <path id="Path_3417" data-name="Path 3417" d="M461.088,304.312h26.456c6.751,0,2.7-5.049-4.1-7.2-1.96-.618-4.234-1.265-6.391-2.014a62.132,62.132,0,0,1-19.962,2.643l-.22,1.816A4.246,4.246,0,0,0,461.088,304.312Z" transform="translate(-299.343 -59.771)" fill="#061c73"/>
        <path id="Path_3418" data-name="Path 3418" d="M427.476,234.384c8.056-1,14.85-2.7,20.849-1.05s16.048,12.9,17.1,19.5,1.651,15.9,6.148,23.249,11.849,13.8,9.9,17.848-17.653,5-27.84,15.651c-6.4,6.682-5.307,11.048-12.355,10.3s-13.651-24.9-19.8-33.9-16.257-27.746-16.529-37.194S412.475,236.249,427.476,234.384Z" transform="translate(-395.909 -175.975)" fill="#ff2b4f"/>
        <g id="Group_1749" data-name="Group 1749" transform="translate(13.15 71.606)">
          <path id="Path_3419" data-name="Path 3419" d="M406.381,253.505c.157.369.315.738.478,1.11l54.4-15.671c-.18-.355-.383-.715-.589-1.078Z" transform="translate(-406.381 -237.866)" fill="#8a2032"/>
          <path id="Path_3420" data-name="Path 3420" d="M460.536,242.809c-.06-.4-.129-.8-.183-1.2l-52.264,15.056c.194.363.389.721.584,1.081Z" transform="translate(-403.205 -230.894)" fill="#8a2032"/>
          <path id="Path_3421" data-name="Path 3421" d="M464.911,253.361c-.16-.355-.343-.718-.552-1.09l-50.705,14.607c.163.372.326.741.492,1.107Z" transform="translate(-392.848 -211.063)" fill="#8a2032"/>
          <path id="Path_3422" data-name="Path 3422" d="M461.168,249.963c-.252-.343-.5-.687-.752-1.033l-48.342,13.926c.169.36.338.729.509,1.1Z" transform="translate(-395.79 -217.28)" fill="#8a2032"/>
          <path id="Path_3423" data-name="Path 3423" d="M459.29,246.559c-.135-.378-.235-.764-.358-1.144L410.1,259.484c.226.355.455.718.672,1.053Z" transform="translate(-399.471 -223.82)" fill="#8a2032"/>
        </g>
        <path id="Path_3424" data-name="Path 3424" d="M425.252,212.97c5.75-1.176,11.174,5.55,12.043,12.352s-2.386,18.989,4.491,23.818,8.871,6.042,8.871,6.042-13.734,7.835-23.332,7.192-18.165-7.18-19.925-15.688S411.842,215.707,425.252,212.97Z" transform="translate(-391.878 -212.835)" fill="#061c73"/>
        <path id="Path_3425" data-name="Path 3425" d="M428.419,215.565s6.279,4.729,8.96,8.739a13.7,13.7,0,0,0,6.276,5.229l-2.369,2s2.206,11.6-.106,14.489-8.728,4.46-8.339,7.861,1.45,11.806,4.34,13.92,11.363,10.035,6.539,11.408c-8.353,2.383-17.038-.87-24.808-7.143-1-.8-1.877-15.957-2.354-21.158s-9.466-6.943-11.328-15.551S411.249,209.288,428.419,215.565Z" transform="translate(-395.868 -210.235)" fill="#ff9caf"/>
        <path id="Path_3426" data-name="Path 3426" d="M411.17,231.21c.478,5.2,1.359,20.354,2.354,21.158,7.77,6.273,16.455,9.526,24.808,7.143,4.823-1.373-3.65-9.294-6.539-11.408s-3.953-10.519-4.34-13.92c-.237-2.057,2.022-3.444,4.354-4.86l-.006,0c-12.433,4.712-18.6-4.506-18.6-4.506l-5.341,1.447C409.611,227.791,410.992,229.256,411.17,231.21Z" transform="translate(-390.479 -190.537)" fill="url(#linear-gradient-9)"/>
        <path id="Path_3427" data-name="Path 3427" d="M435.159,212.882s2.229,12.075-3.192,20.082c-4,5.922-4.039,9.083-4.039,9.083s-2.766-7.712-6.474-5.83-2.546,10.09,3.052,10.813c0,0,.338,13.6,11.323,16.452,0,0-12.916,3.539-17.919,4.617s-14.967-6.969-16-22.27,4.32-26.779,9.729-28.555S435.159,212.882,435.159,212.882Z" transform="translate(-401.784 -212.747)" fill="#061c73"/>
        <g id="Group_1751" data-name="Group 1751" transform="translate(68.054 70.859)">
          <g id="Group_1750" data-name="Group 1750" transform="translate(42.019)">
            <path id="Path_3428" data-name="Path 3428" d="M494.257,283.374H440.262l5.894-45.769h53.995Z" transform="translate(-440.262 -237.605)" fill="#738efa"/>
            <path id="Path_3429" data-name="Path 3429" d="M463.436,250.952c-.6,4.677-4.348,8.468-8.367,8.468s-6.785-3.79-6.182-8.468,4.345-8.468,8.365-8.468S464.037,246.277,463.436,250.952Z" transform="translate(-424.369 -228.527)" fill="#061c73"/>
          </g>
          <rect id="Rectangle_350" data-name="Rectangle 350" width="96.058" height="4.042" transform="translate(0 45.769)" fill="#738efa"/>
          <path id="Path_3430" data-name="Path 3430" d="M489.169,238.153H446.974l-6.258,47.38" transform="translate(-397.398 -236.586)" fill="none" stroke="#fff" stroke-miterlimit="10" stroke-width="0.1"/>
        </g>
        <path id="Path_3431" data-name="Path 3431" d="M409.505,235.735c4.071-3.327,10.57,14.072,11.368,25.471s4,31,4,31,45.493-10,52.894-11.3,24.6,4.3,25.4,6.4-22.4.6-22.4.6l-54.888,19.55a12.226,12.226,0,0,1-16.16-9.446c-2.211-12.933-5.146-30.947-5.544-37.7C403.675,251.829,404.619,239.726,409.505,235.735Z" transform="translate(-397.557 -170.998)" fill="#ff9caf"/>
        <line id="Line_56" data-name="Line 56" x2="52.32" transform="translate(111.793 116.629)" fill="none" stroke="#fff" stroke-miterlimit="10" stroke-width="0.1"/>
      </g>
    </g>
    <g id="Group_1758" data-name="Group 1758" transform="translate(787.207 151.762)">
      <g id="Group_1754" data-name="Group 1754" transform="translate(1.702 4.483)" opacity="0.4">
        <path id="Path_3432" data-name="Path 3432" d="M569.044,211.832a42.838,42.838,0,1,0-14.421,7.933l20.228,12.118Z" transform="translate(-498.709 -136.064)" fill="url(#linear-gradient-3)"/>
      </g>
      <g id="Group_1757" data-name="Group 1757">
        <path id="Path_3433" data-name="Path 3433" d="M568.449,210.265a42.852,42.852,0,1,0-14.423,7.933l20.228,12.115Z" transform="translate(-498.114 -134.497)" fill="#fff"/>
        <g id="Group_1756" data-name="Group 1756" transform="translate(18.154 26.018)">
          <path id="Path_3434" data-name="Path 3434" d="M533.456,146.347h-27.62a1.377,1.377,0,0,1-1.376-1.379h0a1.375,1.375,0,0,1,1.376-1.376h27.62a1.377,1.377,0,0,1,1.379,1.376h0A1.38,1.38,0,0,1,533.456,146.347Z" transform="translate(-504.46 -143.592)" fill="#859cfa"/>
          <g id="Group_1755" data-name="Group 1755" transform="translate(0 9.612)">
            <path id="Path_3435" data-name="Path 3435" d="M552.511,149.707H505.836a1.377,1.377,0,0,1-1.376-1.379h0a1.375,1.375,0,0,1,1.376-1.376h46.675a1.377,1.377,0,0,1,1.379,1.376h0A1.38,1.38,0,0,1,552.511,149.707Z" transform="translate(-504.46 -146.952)" fill="#859cfa"/>
            <path id="Path_3436" data-name="Path 3436" d="M552.511,153.064H505.836a1.375,1.375,0,0,1-1.376-1.376h0a1.375,1.375,0,0,1,1.376-1.376h46.675a1.377,1.377,0,0,1,1.379,1.376h0A1.377,1.377,0,0,1,552.511,153.064Z" transform="translate(-504.46 -140.7)" fill="#859cfa"/>
            <path id="Path_3437" data-name="Path 3437" d="M552.511,156.426H505.836a1.375,1.375,0,0,1-1.376-1.376h0a1.377,1.377,0,0,1,1.376-1.379h46.675a1.38,1.38,0,0,1,1.379,1.379h0A1.377,1.377,0,0,1,552.511,156.426Z" transform="translate(-504.46 -134.45)" fill="#859cfa"/>
          </g>
        </g>
      </g>
    </g>
    <g id="Group_1760" data-name="Group 1760" transform="translate(797.19 238.896)">
      <ellipse id="Ellipse_25" data-name="Ellipse 25" cx="30.881" cy="7.074" rx="30.881" ry="7.074" transform="translate(35.967 369.985)" fill="#c1ccfa"/>
      <ellipse id="Ellipse_26" data-name="Ellipse 26" cx="30.881" cy="7.074" rx="30.881" ry="7.074" transform="translate(120.624 369.985)" fill="#c1ccfa"/>
      <path id="Path_3438" data-name="Path 3438" d="M560.335,286.255l-3.45,17.848.5,7.312a5.368,5.368,0,0,1-5.355,5.736H520.89c-6,0-1.2-5.55,7.349-9.3,2.526-1.11,6.437-3.038,9.231-4.44a7.936,7.936,0,0,0,4.188-5.381l2.778-12.527Z" transform="translate(-470.702 59.347)" fill="#0d3cfa"/>
      <path id="Path_3439" data-name="Path 3439" d="M580.99,286.255l2.989,17.848,2.581,7.057a4.457,4.457,0,0,1-4.185,5.99H550.407c-6,0-1.2-5.55,7.349-9.3a59.6,59.6,0,0,0,8.333-4.863,3.465,3.465,0,0,0,1.465-3.479l-2.46-14.006Z" transform="translate(-415.778 59.347)" fill="#0d3cfa"/>
      <path id="Path_3440" data-name="Path 3440" d="M570.169,216.059l-18.014,11.594s-23.375-24.324-26.908-28.129c-2.2-2.369-4.557-7.8-6.024-11.551a9.506,9.506,0,0,0-5.6-5.493c-4.791-1.754-12.02-4.248-12.02-3.338,0,1.359,6.385,5.527,6.385,5.527s-3.668,4.394-2.174,9.148,10.736,8.874,10.736,8.874,23.509,41.134,31.39,42.63,30.847-11.551,30.847-11.551Z" transform="translate(-501.604 -138.922)" fill="#ff9caf"/>
      <path id="Path_3441" data-name="Path 3441" d="M544.025,187.986l-21,14.4,11.1,22.7,26.053-11.906Z" transform="translate(-461.742 -122.106)" fill="#0d3cfa"/>
      <path id="Path_3442" data-name="Path 3442" d="M523.9,200.681l20.923,18.783,13.745-6.281-16.154-25.2Z" transform="translate(-460.127 -122.106)" opacity="0.53" fill="url(#linear-gradient-11)"/>
      <path id="Path_3443" data-name="Path 3443" d="M616.055,219.852l-3.6,114.369,11.6,79.993h-19.6s-21.235-89.27-23.686-158.006L547.093,414.214H526.124l29.511-194.362Z" transform="translate(-455.98 -62.813)" fill="#061c73"/>
      <line id="Line_57" data-name="Line 57" x1="3.717" y1="28.732" transform="translate(121.075 164.663)" fill="none" stroke="#0d3cfa" stroke-linecap="round" stroke-linejoin="round" stroke-width="0.25"/>
      <path id="Path_3444" data-name="Path 3444" d="M534.877,304.551,526.124,362.2h20.969l23.694-114.389Z" transform="translate(-455.981 -10.796)" opacity="0.53" fill="url(#linear-gradient-3)"/>
      <path id="Path_3445" data-name="Path 3445" d="M556.058,221.412l-2.3,109.819,13.45,80.082" transform="translate(-404.553 -59.911)" fill="none" stroke="#0d3cfa" stroke-linecap="round" stroke-linejoin="round" stroke-width="0.25"/>
      <path id="Path_3446" data-name="Path 3446" d="M552.48,221.7s-7.292,15.013,8.579,23.106" transform="translate(-410.053 -59.379)" fill="none" stroke="#0d3cfa" stroke-linecap="round" stroke-linejoin="round" stroke-width="0.25"/>
      <path id="Path_3447" data-name="Path 3447" d="M535.767,232.53c6.637,4.691,25.451,14.535,61.642,9.686l.7-22.365h-60.42Z" transform="translate(-438.038 -62.813)" opacity="0.53" fill="url(#linear-gradient-3)"/>
      <path id="Path_3448" data-name="Path 3448" d="M565.563,179.159a24.331,24.331,0,0,1,7.8-.4l2.7,4.1,17.708,8.448a7.9,7.9,0,0,1,4.483,6.437c1.562,17.49,7.563,81.166,14.006,102.3,0,0-30.838,17.7-68.364,3.6,0,0,.278-21.152,0-28.195-1.127-28.7-13.525-70.044-13.525-70.044l16.154-12.45v-5.5Z" transform="translate(-448.084 -139.528)" fill="#0d3cfa"/>
      <path id="Path_3449" data-name="Path 3449" d="M568.661,250.607c-3.164-22.05-5.778-48.013-7.157-62.749l-9.738,3.344S543.541,230.84,568.661,250.607Z" transform="translate(-410.666 -122.344)" opacity="0.45" fill="url(#linear-gradient-14)"/>
      <path id="Path_3450" data-name="Path 3450" d="M539.665,184.857s10.6,52.1,12,68.693,2.349,43.948,2.349,43.948" transform="translate(-430.785 -127.928)" fill="none" stroke="#061c73" stroke-linecap="round" stroke-linejoin="round" stroke-width="0.25"/>
      <path id="Path_3451" data-name="Path 3451" d="M556.872,180.1l-11.924,14.815-4.267-6.989" transform="translate(-428.893 -136.772)" fill="none" stroke="#061c73" stroke-linecap="round" stroke-linejoin="round" stroke-width="0.25"/>
      <path id="Path_3452" data-name="Path 3452" d="M539.959,183.04v8.8l-3.944-7.1" transform="translate(-437.577 -131.309)" fill="none" stroke="#061c73" stroke-linecap="round" stroke-linejoin="round" stroke-width="0.25"/>
      <path id="Path_3453" data-name="Path 3453" d="M572.372,212.934l7.89,15.162,37.62-27.829s3.276-13.159,6.216-13.894-1.31,4.792-.372,6.007,9.529-1.965,9.529-1.965l6.857-5.558s-.32,7.506-2.274,11-9.148,9.852-15.945,9.721c0,0-32.085,43.6-44.34,42.844s-24.029-32.609-24.029-32.609Z" transform="translate(-405 -127.928)" fill="#ff9caf"/>
      <path id="Path_3454" data-name="Path 3454" d="M557.989,183.377c8.067,3.4,18.105,14.6,26.99,37.7l-24.747,4.8s-3.9-7.95-9.151-21.249C548,196.8,549.193,179.672,557.989,183.377Z" transform="translate(-412.404 -131.645)" fill="#0d3cfa"/>
      <g id="Group_1759" data-name="Group 1759" transform="translate(78.7)">
        <path id="Path_3455" data-name="Path 3455" d="M545.449,164.961c10.842-.237,17,8.036,18.963,14.106s.189,15.974,1.121,19.71,4.763,8.874,4.763,8.874-8.5,6.54-9.62,8.127-1.213,6.725-1.213,6.725l-5.7-5.79-3.645-7.1s-6.351,3.736-8.313,2.243-4.763-10.37-5.324-10.556a12.248,12.248,0,0,0-3.178.561s1.03-5.884,0-7.661-5.249-5.718-3.942-14.22S536.95,165.15,545.449,164.961Z" transform="translate(-529.115 -164.956)" fill="#ff9caf"/>
        <path id="Path_3456" data-name="Path 3456" d="M551.871,180.718a26.366,26.366,0,0,1-.252-6.056l-4.394,1.01s-3.015,11.491-10.767,15.882l3.644,7.1,5.7,5.79s.091-5.138,1.213-6.725,9.623-8.127,9.623-8.127S552.807,184.454,551.871,180.718Z" transform="translate(-515.452 -146.897)" fill="url(#linear-gradient-15)"/>
        <path id="Path_3457" data-name="Path 3457" d="M560.888,193.731a7.271,7.271,0,0,0,4.426,3.53c-.352-4.443.838-12.816-.9-18.194-1.959-6.07-8.121-14.343-18.963-14.106-8.5.189-14.779,6.52-16.086,15.018a17.183,17.183,0,0,0,.555,8.222c3.816-.226,12.819-1.262,18.288-6.027,0,0,6.654.91,7.847,2.1s.841,7.286,1.611,7.635-.28-6.3,1.542-6.725S563.62,192.538,560.888,193.731Z" transform="translate(-529.115 -164.956)" fill="#061c73"/>
      </g>
      <path id="Path_3458" data-name="Path 3458" d="M541.785,193.5c.149.87-.2,1.653-.775,1.754s-1.167-.524-1.316-1.393.2-1.654.775-1.754S541.636,192.63,541.785,193.5Z" transform="translate(-430.797 -114.463)" fill="none" stroke="#fff" stroke-linecap="round" stroke-linejoin="round" stroke-width="0.25"/>
      <path id="Path_3459" data-name="Path 3459" d="M542.807,198.932c.149.87-.2,1.654-.775,1.754s-1.167-.524-1.316-1.393.2-1.653.775-1.751S542.659,198.065,542.807,198.932Z" transform="translate(-428.893 -104.345)" fill="none" stroke="#fff" stroke-linecap="round" stroke-linejoin="round" stroke-width="0.25"/>
      <path id="Path_3460" data-name="Path 3460" d="M543.887,204.632c.149.87-.2,1.653-.775,1.754s-1.167-.524-1.319-1.393.2-1.653.775-1.754S543.735,203.762,543.887,204.632Z" transform="translate(-426.891 -93.745)" fill="none" stroke="#fff" stroke-linecap="round" stroke-linejoin="round" stroke-width="0.25"/>
    </g>
    <g id="Group_1766" data-name="Group 1766" transform="translate(944.892 197.414)">
      <g id="Group_1761" data-name="Group 1761" transform="translate(0 3.805)" opacity="0.2">
        <path id="Path_3461" data-name="Path 3461" d="M614.572,157.2a202.576,202.576,0,0,0-59.508-4.983,1.846,1.846,0,0,0-1.828,1.716q0,37.332,0,74.661a1.9,1.9,0,0,0,2.16,1.725,202.44,202.44,0,0,1,57.728,4.671,9,9,0,0,0,3.945,0,202.432,202.432,0,0,1,57.728-4.671,1.9,1.9,0,0,0,2.157-1.725V153.932a1.844,1.844,0,0,0-1.825-1.716,202.6,202.6,0,0,0-59.511,4.983A2.31,2.31,0,0,1,614.572,157.2Z" transform="translate(-553.236 -151.786)" fill="url(#linear-gradient-16)"/>
      </g>
      <g id="Group_1765" data-name="Group 1765" transform="translate(3.21)">
        <path id="Path_3462" data-name="Path 3462" d="M614.629,156.017a199.282,199.282,0,0,0-58.478-4.9,1.817,1.817,0,0,0-1.794,1.688v73.365a1.865,1.865,0,0,0,2.12,1.7,199.056,199.056,0,0,1,56.727,4.589,8.787,8.787,0,0,0,3.879,0,199.03,199.03,0,0,1,56.725-4.589,1.865,1.865,0,0,0,2.12-1.7V152.807a1.817,1.817,0,0,0-1.793-1.688,199.282,199.282,0,0,0-58.478,4.9A2.225,2.225,0,0,1,614.629,156.017Z" transform="translate(-554.358 -150.005)" fill="#f80"/>
        <g id="Group_1763" data-name="Group 1763" transform="translate(3.321)">
          <path id="Path_3463" data-name="Path 3463" d="M612.984,228.173a188.078,188.078,0,0,0-57.465-4.626q0-36.285,0-72.572a188.079,188.079,0,0,1,57.465,4.626Q612.98,191.885,612.984,228.173Z" transform="translate(-555.519 -150.455)" fill="url(#linear-gradient-17)"/>
          <g id="Group_1762" data-name="Group 1762" transform="translate(11.448 15.08)">
            <path id="Path_3464" data-name="Path 3464" d="M559.521,155.742a188.382,188.382,0,0,1,34.568,2.781" transform="translate(-559.521 -155.727)" fill="none" stroke="#ffdab0" stroke-linecap="round" stroke-linejoin="round" stroke-width="0.387"/>
            <path id="Path_3465" data-name="Path 3465" d="M559.521,159.447a188.383,188.383,0,0,1,34.568,2.783" transform="translate(-559.521 -148.831)" fill="none" stroke="#ffdab0" stroke-linecap="round" stroke-linejoin="round" stroke-width="0.387"/>
            <path id="Path_3466" data-name="Path 3466" d="M559.521,163.155a188.375,188.375,0,0,1,34.568,2.781" transform="translate(-559.521 -141.934)" fill="none" stroke="#ffdab0" stroke-linecap="round" stroke-linejoin="round" stroke-width="0.387"/>
            <path id="Path_3467" data-name="Path 3467" d="M559.521,166.862a188.374,188.374,0,0,1,34.568,2.781" transform="translate(-559.521 -135.036)" fill="none" stroke="#ffdab0" stroke-linecap="round" stroke-linejoin="round" stroke-width="0.387"/>
            <path id="Path_3468" data-name="Path 3468" d="M559.521,170.569a188.374,188.374,0,0,1,34.568,2.781" transform="translate(-559.521 -128.139)" fill="none" stroke="#ffdab0" stroke-linecap="round" stroke-linejoin="round" stroke-width="0.387"/>
          </g>
        </g>
        <path id="Path_3469" data-name="Path 3469" d="M575.607,228.173a188.053,188.053,0,0,1,57.462-4.626q0-36.285,0-72.572a188.054,188.054,0,0,0-57.462,4.626Z" transform="translate(-514.821 -150.455)" fill="#fff"/>
        <g id="Group_1764" data-name="Group 1764" transform="translate(72.235 15.08)">
          <path id="Path_3470" data-name="Path 3470" d="M614.174,155.742a188.33,188.33,0,0,0-34.565,2.781" transform="translate(-579.609 -155.727)" fill="none" stroke="#ffdab0" stroke-linecap="round" stroke-linejoin="round" stroke-width="0.387"/>
          <path id="Path_3471" data-name="Path 3471" d="M614.174,159.447a188.331,188.331,0,0,0-34.565,2.783" transform="translate(-579.609 -148.831)" fill="none" stroke="#ffdab0" stroke-linecap="round" stroke-linejoin="round" stroke-width="0.387"/>
          <path id="Path_3472" data-name="Path 3472" d="M614.174,163.155a188.323,188.323,0,0,0-34.565,2.781" transform="translate(-579.609 -141.934)" fill="none" stroke="#ffdab0" stroke-linecap="round" stroke-linejoin="round" stroke-width="0.387"/>
          <path id="Path_3473" data-name="Path 3473" d="M614.174,166.862a188.322,188.322,0,0,0-34.565,2.781" transform="translate(-579.609 -135.036)" fill="none" stroke="#ffdab0" stroke-linecap="round" stroke-linejoin="round" stroke-width="0.387"/>
          <path id="Path_3474" data-name="Path 3474" d="M614.174,170.569a188.322,188.322,0,0,0-34.565,2.781" transform="translate(-579.609 -128.139)" fill="none" stroke="#ffdab0" stroke-linecap="round" stroke-linejoin="round" stroke-width="0.387"/>
        </g>
        <path id="Path_3475" data-name="Path 3475" d="M578.325,153.268v22.064l4.969-4.594,4.969,3.333V151.989a1.1,1.1,0,0,0-1.256-1.09c-2.6.378-5.195.8-7.784,1.282A1.109,1.109,0,0,0,578.325,153.268Z" transform="translate(-509.763 -149.65)" fill="#ff2b4f"/>
        <line id="Line_58" data-name="Line 58" y2="72.7" transform="translate(60.785 5.016)" fill="none" stroke="#f80" stroke-linecap="round" stroke-linejoin="round" stroke-width="0.387"/>
      </g>
    </g>
  </g>
</svg>
