<svg xmlns="http://www.w3.org/2000/svg" xmlns:xlink="http://www.w3.org/1999/xlink" width="489.945" height="410.349" viewBox="0 0 489.945 410.349">
  <defs>
    <clipPath id="clip-path">
      <rect width="489.945" height="410.349" fill="none"/>
    </clipPath>
  </defs>
  <g id="Repeat_Grid_2" data-name="Repeat Grid 2" clip-path="url(#clip-path)">
    <g id="Group_1720" data-name="Group 1720" transform="translate(-383.896 -147.954)">
      <g id="Group_1692" data-name="Group 1692" transform="translate(383.896 357.744)">
        <path id="Path_3281" data-name="Path 3281" d="M390.124,244.7c12.535-8.178,25.5,6.881,31.754,21.247s11.833,29.922,26.881,34.334,23.284,6.927,27.921,19.841,4.285,16.82,14.262,24.019,20.326,20.041,21.788,34.343L460.7,402.218s-13.383-5.44-26.467-21.777-9.986-27.494-14.674-34.548-21.334-10.131-24.464-23.4,2.273-22.772-4.643-37.246S380.191,251.184,390.124,244.7Z" transform="translate(-383.896 -242.391)" fill="#1a4ced"/>
        <path id="Path_3282" data-name="Path 3282" d="M390.056,247.07c16.537,44.164,26.073,68.036,89.963,137.154" transform="translate(-376.345 -236.654)" fill="none" stroke="#fff" stroke-linecap="round" stroke-linejoin="round" stroke-width="0.5"/>
        <path id="Path_3283" data-name="Path 3283" d="M397.449,249.237s2.015,11.609-1.2,29.368" transform="translate(-368.749 -233.997)" fill="none" stroke="#fff" stroke-linecap="round" stroke-linejoin="round" stroke-width="0.5"/>
        <path id="Path_3284" data-name="Path 3284" d="M389.8,266.01s2.729,5.053,27.669,16.86" transform="translate(-376.656 -213.433)" fill="none" stroke="#fff" stroke-linecap="round" stroke-linejoin="round" stroke-width="0.5"/>
        <path id="Path_3285" data-name="Path 3285" d="M415.314,270.936s8.564,31.975,1.6,47.661" transform="translate(-345.378 -207.394)" fill="none" stroke="#fff" stroke-linecap="round" stroke-linejoin="round" stroke-width="0.5"/>
        <path id="Path_3286" data-name="Path 3286" d="M404.883,299.034a78.368,78.368,0,0,0,40.289,3.088" transform="translate(-358.166 -172.945)" fill="none" stroke="#fff" stroke-linecap="round" stroke-linejoin="round" stroke-width="0.5"/>
      </g>
      <g id="Group_1693" data-name="Group 1693" transform="translate(800.327 426.164)">
        <path id="Path_3287" data-name="Path 3287" d="M632.542,274.071c10.863,4.307,5.636,24.132,1.066,35.263s7.642,26.933-23.805,45.4L570.97,331.2s9.383-27.255,24.62-32.718C611.279,292.852,617.272,268.016,632.542,274.071Z" transform="translate(-570.97 -273.127)" fill="#1a4ced"/>
        <path id="Path_3288" data-name="Path 3288" d="M619.509,275.789s-14.485,35.372-39.8,63.936" transform="translate(-560.255 -269.863)" fill="none" stroke="#fff" stroke-linecap="round" stroke-linejoin="round" stroke-width="0.5"/>
        <path id="Path_3289" data-name="Path 3289" d="M593.812,275.563s-3.511,12.553-.781,23.235" transform="translate(-545.197 -270.14)" fill="none" stroke="#fff" stroke-linecap="round" stroke-linejoin="round" stroke-width="0.5"/>
        <path id="Path_3290" data-name="Path 3290" d="M612.754,294.867s-17.989,6.778-28.019,7.446" transform="translate(-554.094 -246.473)" fill="none" stroke="#fff" stroke-linecap="round" stroke-linejoin="round" stroke-width="0.5"/>
      </g>
      <path id="Path_3292" data-name="Path 3292" d="M476.859,384.044H750.18s-12.014-27.088-38.045-28.482c0,0,2.4-27.992-20.989-36.086-24.17-8.368-32.538-8.158-52.525-29.762s-37.175-34.617-70.647-32.758S497.312,285.14,476.859,384.044Z" transform="translate(113.975 132.995)" fill="#35826f"/>
      <path id="Path_3293" data-name="Path 3293" d="M556.24,165.963v54.7L536.367,233.2l19.873-.853v10.464h81.788V165.963Z" transform="translate(186.933 21.651)" opacity="0.2"/>
      <path id="Path_3294" data-name="Path 3294" d="M392.5,374.061H711.289s-1.765-33.911-39.886-48.32-39.053-13.481-51.6-30.214-27.745-25.566-45.248-23.707-26.646,8.368-26.646,8.368-26.185-8.833-44.314,1.859S467.8,325.741,467.8,325.741,394.821,335.459,392.5,374.061Z" transform="translate(10.544 151.134)" fill="#4ebfa5"/>
      <g id="Group_1694" data-name="Group 1694" transform="translate(693.38 408.242)">
        <rect id="Rectangle_332" data-name="Rectangle 332" width="10.153" height="96.99" transform="translate(31.946 16.726)" fill="#1a4ced"/>
        <path id="Path_3297" data-name="Path 3297" d="M547.43,314.963V272.59H537.277v30.5Z" transform="translate(-505.331 -255.864)" opacity="0.2"/>
        <path id="Path_3298" data-name="Path 3298" d="M591.252,284.863H528.645c-2.064,0-3.847-1.892-4.274-4.534l-1.349-8.354c-.574-3.555,1.5-6.9,4.274-6.9H592.6c2.776,0,4.848,3.344,4.274,6.9l-1.349,8.354C595.1,282.971,593.315,284.863,591.252,284.863Z" transform="translate(-522.926 -265.076)" fill="#1a4ced"/>
        <path id="Path_3299" data-name="Path 3299" d="M558.861,313.951a51.911,51.911,0,0,0-34.3,12.557,2.132,2.132,0,0,0,1.374,3.755h65.857a2.132,2.132,0,0,0,1.373-3.755A51.916,51.916,0,0,0,558.861,313.951Z" transform="translate(-521.84 -205.154)" fill="#1a4ced"/>
        <path id="Path_3300" data-name="Path 3300" d="M593.164,377.218A51.43,51.43,0,0,0,563.939,364.9V272.59H553.786V364.9a51.424,51.424,0,0,0-29.225,12.319,2.132,2.132,0,0,0,1.374,3.755h65.857A2.132,2.132,0,0,0,593.164,377.218Z" transform="translate(-521.84 -255.864)" fill="#1a4ced"/>
      </g>
      <g id="Group_1702" data-name="Group 1702" transform="translate(439.506 317.609)">
        <g id="Group_1696" data-name="Group 1696" transform="translate(16.293 15.113)">
          <rect id="Rectangle_333" data-name="Rectangle 333" width="11.505" height="5.868" rx="0.657" transform="translate(12.352 60.022)" fill="#942754"/>
          <path id="Path_3301" data-name="Path 3301" d="M452.408,249.257a18.105,18.105,0,1,0-36.211,0,26.775,26.775,0,0,0,2.945,11.511,33.561,33.561,0,0,1,3.646,13.617l.24,3.715h22.545l.243-3.715a33.527,33.527,0,0,1,3.646-13.617A26.775,26.775,0,0,0,452.408,249.257Z" transform="translate(-416.197 -231.15)" fill="#ffcf30"/>
          <path id="Rectangle_334" data-name="Rectangle 334" d="M0,0H23.961a0,0,0,0,1,0,0V14.393a1.227,1.227,0,0,1-1.227,1.227H1.227A1.227,1.227,0,0,1,0,14.393V0A0,0,0,0,1,0,0Z" transform="translate(6.124 46.948)" fill="#ff1a79"/>
          <path id="Path_3302" data-name="Path 3302" d="M431.081,254.19V244.122h-.007c-.033-3.664-.639-5.149-1.389-5.149-.385,0-.732.387-.986,1.262-.252-.875-.6-1.262-.986-1.262s-.732.387-.986,1.262c-.251-.875-.6-1.262-.986-1.262s-.735.387-.986,1.262c-.252-.875-.6-1.262-.986-1.262-.75,0-1.356,1.485-1.389,5.149h0V254.19" transform="translate(-408.623 -221.559)" fill="none" stroke="#fff" stroke-linecap="round" stroke-linejoin="round" stroke-width="0.517"/>
          <g id="Group_1695" data-name="Group 1695" transform="translate(6.124 50.48)">
            <line id="Line_21" data-name="Line 21" x2="23.961" fill="none" stroke="#942754" stroke-miterlimit="10" stroke-width="0.517"/>
            <line id="Line_22" data-name="Line 22" x2="23.961" transform="translate(0 2.852)" fill="none" stroke="#942754" stroke-miterlimit="10" stroke-width="0.517"/>
            <line id="Line_23" data-name="Line 23" x2="23.961" transform="translate(0 5.704)" fill="none" stroke="#942754" stroke-miterlimit="10" stroke-width="0.517"/>
            <line id="Line_24" data-name="Line 24" x2="23.961" transform="translate(0 8.556)" fill="none" stroke="#942754" stroke-miterlimit="10" stroke-width="0.517"/>
          </g>
        </g>
        <g id="Group_1701" data-name="Group 1701">
          <g id="Group_1700" data-name="Group 1700">
            <line id="Line_25" data-name="Line 25" y2="7.902" transform="translate(34.895)" fill="none" stroke="#fff" stroke-linecap="round" stroke-linejoin="round" stroke-width="0.75"/>
            <line id="Line_26" data-name="Line 26" x2="3.951" y2="6.843" transform="translate(17.448 4.675)" fill="none" stroke="#fff" stroke-linecap="round" stroke-linejoin="round" stroke-width="0.75"/>
            <g id="Group_1697" data-name="Group 1697" transform="translate(4.675 17.448)">
              <line id="Line_27" data-name="Line 27" x2="6.843" y2="3.951" stroke-width="0.75" stroke="#fff" stroke-linecap="round" stroke-linejoin="round" fill="none"/>
              <line id="Line_28" data-name="Line 28" x2="6.843" y2="3.951" transform="translate(52.735 30.447)" fill="none" stroke="#fff" stroke-linecap="round" stroke-linejoin="round" stroke-width="0.75"/>
            </g>
            <g id="Group_1698" data-name="Group 1698" transform="translate(0 34.895)">
              <line id="Line_29" data-name="Line 29" x2="7.902" stroke-width="0.75" stroke="#fff" stroke-linecap="round" stroke-linejoin="round" fill="none"/>
              <line id="Line_30" data-name="Line 30" x2="7.902" transform="translate(60.893)" fill="none" stroke="#fff" stroke-linecap="round" stroke-linejoin="round" stroke-width="0.75"/>
            </g>
            <g id="Group_1699" data-name="Group 1699" transform="translate(4.675 17.945)">
              <line id="Line_31" data-name="Line 31" y1="3.951" x2="6.843" transform="translate(0 30.446)" fill="none" stroke="#fff" stroke-linecap="round" stroke-linejoin="round" stroke-width="0.75"/>
              <line id="Line_32" data-name="Line 32" y1="3.951" x2="6.843" transform="translate(52.735)" fill="none" stroke="#fff" stroke-linecap="round" stroke-linejoin="round" stroke-width="0.75"/>
            </g>
            <line id="Line_33" data-name="Line 33" y1="6.843" x2="3.951" transform="translate(47.894 5.537)" fill="none" stroke="#fff" stroke-linecap="round" stroke-linejoin="round" stroke-width="0.75"/>
          </g>
        </g>
      </g>
      <path id="Path_3303" data-name="Path 3303" d="M443.929,227.71l9.378-20.633-22.577,1.982,4.147,5.86-19.847,12.369,6.487,9.166,18.266-14.6Z" transform="translate(38.17 72.058)" fill="#fff"/>
      <path id="Path_3304" data-name="Path 3304" d="M596.177,208.293,586.8,187.66l22.577,1.982-4.147,5.86,19.847,12.369-6.487,9.166-18.266-14.6Z" transform="translate(248.765 48.252)" fill="#fff"/>
      <path id="Path_3305" data-name="Path 3305" d="M403.425,214.253H520.1s.621-29.9-27.89-26.5c0,0-6.972-17.352-29.749-13.325s-22.933,21.537-22.933,21.537-16.577-4.957-21.227,10.847C418.3,206.816,405.44,207.591,403.425,214.253Z" transform="translate(23.942 31.291)" fill="#fff"/>
      <g id="Group_1703" data-name="Group 1703" transform="translate(563.171 181.711)">
        <path id="Path_3306" data-name="Path 3306" d="M468.98,163.311l-2.273,1.823-2.275,1.823c4.733,8.125,6.956,20.219,6.956,20.219,4.16-1.022,9.759,5.518,9.759,5.518l9.316-7.466S485.3,178.341,487.2,174.5C487.2,174.5,475.88,169.7,468.98,163.311Z" transform="translate(-464.432 -163.311)" fill="#fff"/>
        <line id="Line_34" data-name="Line 34" x2="11.546" y2="14.405" transform="translate(2.274 1.824)" fill="none" stroke="#b5b5b5" stroke-miterlimit="10" stroke-width="0.771"/>
        <path id="Path_3307" data-name="Path 3307" d="M473.935,171.04a2.116,2.116,0,1,1-2.974-.329A2.113,2.113,0,0,1,473.935,171.04Z" transform="translate(-457.4 -154.808)" fill="none" stroke="#b5b5b5" stroke-miterlimit="10" stroke-width="0.771"/>
        <rect id="Rectangle_335" data-name="Rectangle 335" width="14.575" height="11.958" transform="matrix(0.78, -0.625, 0.625, 0.78, 15.687, 30.209)" fill="#547cde"/>
        <path id="Path_3308" data-name="Path 3308" d="M474.839,186.094l39.187,48.89c.648.808,3.718-.579,6.858-3.1s5.162-5.211,4.514-6.019l-39.187-48.89Z" transform="translate(-451.673 -146.555)" fill="#1a4ced"/>
      </g>
      <path id="Path_3309" data-name="Path 3309" d="M519.987,185.653c-9.761,21.846-33.417,42.31-53.921,41.137-17.586-1.006-17.276-10.3-14.874-13.712,2.9-4.109,13.016-3.662,13.247,6.42s-5.723,21-15.179,30.534a81.482,81.482,0,0,0-14.592,20.684" transform="translate(62.247 45.791)" fill="none" stroke="#ffcf30" stroke-linecap="round" stroke-linejoin="round" stroke-width="0.5"/>
      <path id="Path_3310" data-name="Path 3310" d="M481.975,205.117c6.507-12.254,19.756-23.177,33.468-28.291s25.8-9.53,28.355-17.664-5.347-13.481-13.946-9.53-7.206,20.453,13.016,19.059,57.639-6.509,67.168,11.155" transform="translate(120.247 0)" fill="none" stroke="#ffcf30" stroke-linecap="round" stroke-linejoin="round" stroke-width="0.5"/>
      <path id="Path_3311" data-name="Path 3311" d="M555.032,164.13v54.7L535.159,231.37l19.873-.853v10.464H636.82V164.13Z" transform="translate(185.452 19.404)" fill="#ffcf30"/>
      <g id="Group_1704" data-name="Group 1704" transform="translate(754.687 193.404)">
        <circle id="Ellipse_14" data-name="Ellipse 14" cx="18.516" cy="18.516" r="18.516" fill="#fff"/>
        <rect id="Rectangle_336" data-name="Rectangle 336" width="31.455" height="31.455" transform="translate(18.516 18.516)" fill="#fff"/>
        <path id="Path_3312" data-name="Path 3312" d="M558.785,195.4A18.516,18.516,0,0,0,577.3,176.882H558.785Z" transform="translate(-540.269 -158.366)" fill="#ff1a79"/>
      </g>
      <g id="Group_1708" data-name="Group 1708" transform="translate(790.497 274.516)">
        <g id="Group_1705" data-name="Group 1705" transform="translate(3.405 3.776)" opacity="0.2">
          <rect id="Rectangle_337" data-name="Rectangle 337" width="62.831" height="139.844" rx="4.829"/>
        </g>
        <g id="Group_1707" data-name="Group 1707">
          <rect id="Rectangle_338" data-name="Rectangle 338" width="62.831" height="139.844" rx="4.829" fill="#fff"/>
          <path id="Path_3313" data-name="Path 3313" d="M586.515,218.006a7.252,7.252,0,1,1-7.252-7.252A7.252,7.252,0,0,1,586.515,218.006Z" transform="translate(-559.864 -197.95)" fill="#ffcf30"/>
          <circle id="Ellipse_15" data-name="Ellipse 15" cx="7.253" cy="7.253" r="7.253" transform="translate(36.18 12.803)" fill="#ff1a79"/>
          <path id="Path_3314" data-name="Path 3314" d="M586.515,228.067a7.252,7.252,0,1,1-7.252-7.252A7.252,7.252,0,0,1,586.515,228.067Z" transform="translate(-559.864 -185.615)" fill="#35826f"/>
          <path id="Path_3315" data-name="Path 3315" d="M597.312,228.067a7.252,7.252,0,1,1-7.252-7.252A7.253,7.253,0,0,1,597.312,228.067Z" transform="translate(-546.627 -185.615)" fill="#b514ff"/>
          <path id="Path_3316" data-name="Path 3316" d="M586.515,238.128a7.252,7.252,0,1,1-7.252-7.252A7.251,7.251,0,0,1,586.515,238.128Z" transform="translate(-559.864 -173.28)" fill="#8ab1ff"/>
          <path id="Path_3317" data-name="Path 3317" d="M597.312,238.128a7.252,7.252,0,1,1-7.252-7.252A7.252,7.252,0,0,1,597.312,238.128Z" transform="translate(-546.627 -173.28)" fill="#7c2aff"/>
          <path id="Path_3318" data-name="Path 3318" d="M586.515,248.189a7.252,7.252,0,1,1-7.252-7.252A7.251,7.251,0,0,1,586.515,248.189Z" transform="translate(-559.864 -160.945)" fill="#5283ff"/>
          <circle id="Ellipse_16" data-name="Ellipse 16" cx="7.253" cy="7.253" r="7.253" transform="translate(36.18 79.992)" fill="#0c11ff"/>
          <g id="Group_1706" data-name="Group 1706" transform="translate(17.406 101.565)">
            <path id="Path_3319" data-name="Path 3319" d="M598.189,257.892l-5.374-5.376L577.732,267.6a4.58,4.58,0,0,0-1.26,4.089h0a1.4,1.4,0,0,1-.387,1.253l-1.365,1.365a1.188,1.188,0,0,0,0,1.678h0a1.186,1.186,0,0,0,1.681,0l1.362-1.362a1.4,1.4,0,0,1,1.255-.387h0a4.583,4.583,0,0,0,4.089-1.262Z" transform="translate(-574.373 -248.314)" fill="#8ab1ff"/>
            <path id="Path_3320" data-name="Path 3320" d="M590.784,259.471l-.971-.971,1.977-1.977a3.454,3.454,0,0,0-4.886-4.884l-1.977,1.977-.968-.971a1.033,1.033,0,1,0-1.46,1.46l6.825,6.823a1.032,1.032,0,0,0,1.46-1.458Z" transform="translate(-564.782 -250.629)" fill="#ff1a79"/>
          </g>
        </g>
      </g>
      <g id="Group_1711" data-name="Group 1711" transform="translate(585.095 197.461)">
        <path id="Path_3321" data-name="Path 3321" d="M512.745,310.038l-1.24,15.184s-18.592,7.437-18.592,9.917,32.847,3.254,34.087,0,2.789-25.1,2.789-25.1Z" transform="translate(-451.438 0.83)" fill="#1a4ced"/>
        <path id="Path_3322" data-name="Path 3322" d="M497.543,310.038l-4.668,15.184s-18.594,7.437-18.594,9.917,32.849,3.254,34.087,0,6.217-25.1,6.217-25.1Z" transform="translate(-474.281 0.83)" fill="#1a4ced"/>
        <path id="Path_3323" data-name="Path 3323" d="M591.3,248.089s-72.98,3.88-82.586,25.257c-9.73,21.648-25.1,115.82-25.1,115.82h20.531l27.425-100.636s72.513-2.195,88.549-9.53,22.312-30.911,22.312-30.911Z" transform="translate(-462.842 -75.121)" fill="#ffcf30"/>
        <path id="Path_3324" data-name="Path 3324" d="M501.218,356.212l18.445-67.682s72.513-2.195,88.549-9.53,22.312-30.911,22.312-30.911h-51.13s-72.98,3.88-82.586,25.257a83.926,83.926,0,0,0-3.488,9.9Z" transform="translate(-450.939 -75.121)" opacity="0.2"/>
        <path id="Path_3325" data-name="Path 3325" d="M622.543,248.089a45.384,45.384,0,0,1,0,25.8c-4.183,13.946-19.522,17.2-32.769,17.2H545.592a7,7,0,0,0-6.905,5.866l-15.15,92.215H499.829s2.556-84.09,7.9-102.5c8.056-27.736,28.818-29.007,79.253-33.424Z" transform="translate(-442.958 -75.121)" fill="#ffcf30"/>
        <path id="Path_3326" data-name="Path 3326" d="M546.909,206.223C537.382,214.357,532.5,271.3,532.5,271.3l-40.44,9.3v12.087l43.178-2.377A15.065,15.065,0,0,0,549.2,278.126l7.934-40.992Z" transform="translate(-452.484 -126.45)" fill="#1a4ced"/>
        <path id="Path_3327" data-name="Path 3327" d="M534.62,242.555s-10.053,1.8-14.293,2.9c-3.684.959-20.629,9.995-20.629,11.911s11.622,1.278,11.622,1.278,11.793-2.845,13.539-6.449l11.909-.755Z" transform="translate(-443.119 -81.906)" fill="#fff"/>
        <path id="Path_3328" data-name="Path 3328" d="M525.271,273.6l7.059-36.469L522.1,206.223c-4.163,3.555-7.44,16.432-9.81,29.8Z" transform="translate(-427.677 -126.45)" opacity="0.2"/>
        <path id="Path_3329" data-name="Path 3329" d="M539.984,201.643c13.625-1.95,32.3-.93,41.368,10.689s20.918,61.824,22.312,74.605,7.437,20.687-4.648,20.687H551.373c-11.157,0-11.622-1.4-11.388-13.712s-1.627-24.869-13.946-45.322-12.55-29.749-8.368-35.792S533.4,202.583,539.984,201.643Z" transform="translate(-424.08 -133.029)" fill="#1a4ced"/>
        <path id="Path_3330" data-name="Path 3330" d="M526.8,288.623c-.234,12.317.231,13.712,11.388,13.712h47.644c12.087,0,6.044-7.9,4.648-20.684s-13.247-62.985-22.312-74.608a23.205,23.205,0,0,0-1.647-1.872l-40.54,70.576A71.67,71.67,0,0,1,526.8,288.623Z" transform="translate(-410.895 -127.74)" opacity="0.2"/>
        <path id="Path_3331" data-name="Path 3331" d="M574.753,203.658c13.734,1.155,12.735,36.206,12.735,48.291s.231,35.559-11.622,39.278-59.731,10.458-59.731,10.458l-1.745-11.851L562.851,273.8s.931-29.98,1.162-40.207S561.555,202.545,574.753,203.658Z" transform="translate(-425.106 -129.648)" fill="#1a4ced"/>
        <path id="Path_3332" data-name="Path 3332" d="M522.937,193.628c1.821,4.114.906,8.506-2.043,9.812s-6.816-.973-8.637-5.086-.9-8.506,2.046-9.812S521.119,189.514,522.937,193.628Z" transform="translate(-428.868 -148.579)" fill="#1a4ced"/>
        <path id="Path_3333" data-name="Path 3333" d="M515.12,202.587a147.322,147.322,0,0,0,5.647,17.853c1.4,3.47,6.021,4.392,12.181,2.714,0,0,2.386,7.054,4.013,10.749s18.941,1.345,16.851-5.151-4.8-14-4.8-14,7.244-32.467-15.649-34.595S508.736,198.816,515.12,202.587Z" transform="translate(-428.147 -158.6)" fill="#fff"/>
        <path id="Path_3334" data-name="Path 3334" d="M533.839,199.48s5.387,7.789,14.32,7.925c0,0,1.843,13.528,9.358,19.13,0,0,11.629-5.6,7.515-12.435,0,0,10.068-5.877-1.984-17.49,0,0,7.457-2.76,7.174-5.9s-14.1-1.044-14.1-1.044-15.807-21.087-26.111-19.151c-5.814,1.093-6.807,10.249-6.807,10.249s-12.194-4.784-17.016,1.912,6.24,19.128,6.24,19.128-4.773,1.5-4.679,5.193c.187,7.341,15.88,7.379,15.88,7.379l-.425-4.646s4.539,1.093,4.111-.41-2.694-3.553-2.694-3.553S531.994,203.851,533.839,199.48Z" transform="translate(-436.655 -170.387)" fill="#252933"/>
        <ellipse id="Ellipse_17" data-name="Ellipse 17" cx="8.145" cy="5.84" rx="8.145" ry="5.84" transform="translate(110.141 49.995) rotate(-78.584)" fill="#1a4ced"/>
        <g id="Group_1710" data-name="Group 1710" transform="translate(117.415 14.459)">
          <g id="Group_1709" data-name="Group 1709">
            <path id="Path_3335" data-name="Path 3335" d="M528.887,205.124a1.894,1.894,0,0,1-.481-.065,1.859,1.859,0,0,1-1.315-2.277c2.638-9.879.594-23.623.574-23.758a1.859,1.859,0,1,1,3.675-.561c.091.592,2.186,14.638-.659,25.279A1.859,1.859,0,0,1,528.887,205.124Z" transform="translate(-527.028 -176.882)" fill="#1a4ced"/>
          </g>
        </g>
        <path id="Path_3336" data-name="Path 3336" d="M563.939,212.3l-1.087,50.839L514.39,279.179" transform="translate(-425.106 -118.995)" fill="none" stroke="#103094" stroke-miterlimit="10" stroke-width="0.5"/>
      </g>
      <g id="Group_1719" data-name="Group 1719" transform="translate(511.403 301.424)">
        <path id="Path_3337" data-name="Path 3337" d="M563.125,292.975H466.5l-16.428-71.914a3.249,3.249,0,0,1,3.168-3.971H541.9a4.872,4.872,0,0,1,4.75,3.786Z" transform="translate(-430.374 -217.09)" fill="#252933"/>
        <rect id="Rectangle_339" data-name="Rectangle 339" width="108.615" height="4.106" transform="translate(74.976 71.78)" fill="#252933"/>
        <g id="Group_1715" data-name="Group 1715" transform="translate(6.452 84.809)">
          <g id="Group_1714" data-name="Group 1714">
            <g id="Group_1712" data-name="Group 1712">
              <path id="Path_3338" data-name="Path 3338" d="M476.268,255.189l-25.685,164.86h-6.508l17.938-164.86Z" transform="translate(-444.075 -255.189)" fill="#fff"/>
              <path id="Path_3339" data-name="Path 3339" d="M485.207,403.47l-8.64-148.281H462.312L477.92,403.47Z" transform="translate(-421.716 -255.189)" fill="#fff"/>
            </g>
            <g id="Group_1713" data-name="Group 1713" transform="translate(106.924)">
              <path id="Path_3340" data-name="Path 3340" d="M524.3,255.189l-25.685,164.86h-6.508l17.938-164.86Z" transform="translate(-492.108 -255.189)" fill="#fff"/>
              <path id="Path_3341" data-name="Path 3341" d="M533.24,403.47,524.6,255.189H510.345L525.954,403.47Z" transform="translate(-469.75 -255.189)" fill="#fff"/>
            </g>
          </g>
        </g>
        <g id="Group_1716" data-name="Group 1716" transform="translate(23.497 84.809)" opacity="0.2">
          <path id="Path_3342" data-name="Path 3342" d="M465.2,265.96l1.678-10.772H452.625l-.893,8.206Z" transform="translate(-451.732 -255.189)"/>
          <path id="Path_3343" data-name="Path 3343" d="M476.567,255.189H462.312l1.363,12.951,13.8,2.629Z" transform="translate(-438.761 -255.189)"/>
        </g>
        <g id="Group_1717" data-name="Group 1717" transform="translate(130.433 84.809)" opacity="0.2">
          <path id="Path_3344" data-name="Path 3344" d="M513.241,265.96l1.678-10.772H500.664l-.893,8.206Z" transform="translate(-499.771 -255.189)"/>
          <path id="Path_3345" data-name="Path 3345" d="M524.606,255.189H510.351l1.363,12.951,13.8,2.629Z" transform="translate(-486.8 -255.189)"/>
        </g>
        <rect id="Rectangle_340" data-name="Rectangle 340" width="183.318" height="8.923" transform="translate(0 75.886)" fill="#fff"/>
        <line id="Line_35" data-name="Line 35" x2="183.592" transform="translate(0 81.727)" fill="none" stroke="#ffcf30" stroke-miterlimit="10" stroke-width="0.5"/>
        <line id="Line_36" data-name="Line 36" x2="16.695" y2="71.235" transform="translate(111.154 4.651)" fill="none" stroke="#fff" stroke-miterlimit="10" stroke-width="0.5" opacity="0.15"/>
        <path id="Path_3346" data-name="Path 3346" d="M491.446,240.132a11.161,11.161,0,1,1-11.161-11.161A11.162,11.162,0,0,1,491.446,240.132Z" transform="translate(-406.913 -202.524)" fill="#ff1a79"/>
      </g>
      <path id="Path_3351" data-name="Path 3351" d="M499.541,177.664a6.466,6.466,0,1,1-6.464-6.467A6.466,6.466,0,0,1,499.541,177.664Z" transform="translate(125.93 28.068)" fill="none" stroke="#fff" stroke-linecap="round" stroke-linejoin="round" stroke-width="0.75"/>
      <path id="Path_3352" data-name="Path 3352" d="M421.006,206.068a6.467,6.467,0,1,1-6.467-6.467A6.468,6.468,0,0,1,421.006,206.068Z" transform="translate(29.641 62.892)" fill="none" stroke="#fff" stroke-linecap="round" stroke-linejoin="round" stroke-width="0.75"/>
      <path id="Path_3353" data-name="Path 3353" d="M485.426,208.973a6.465,6.465,0,1,1-6.467-6.467A6.466,6.466,0,0,1,485.426,208.973Z" transform="translate(108.624 66.454)" fill="none" stroke="#fff" stroke-linecap="round" stroke-linejoin="round" stroke-width="0.75"/>
    </g>
  </g>
</svg>
