<svg xmlns="http://www.w3.org/2000/svg" width="82.304" height="82.305" viewBox="0 0 82.304 82.305">
  <g id="Group_2067" data-name="Group 2067" transform="translate(-212 -1530)">
    <g id="cloud-computing" transform="translate(212 1530)">
      <path id="Path_3740" data-name="Path 3740" d="M82.3,41.152A41.152,41.152,0,1,1,41.152,0,41.152,41.152,0,0,1,82.3,41.152Zm0,0" fill="#4a7aff"/>
      <path id="Path_3741" data-name="Path 3741" d="M144.127,152.591A41.17,41.17,0,0,0,171.5,114.943L153.273,96.716l-1.171,2.1L139.851,86.563l-33.55,28.2Zm0,0" transform="translate(-89.213 -72.647)" fill="#0053bf"/>
      <path id="Path_3742" data-name="Path 3742" d="M128.784,93.084a12.082,12.082,0,1,0-1.569-24.063A12.084,12.084,0,0,0,103.5,67.906a7.871,7.871,0,0,0-8.89,9.568,7.872,7.872,0,0,0,1.452,15.61Zm0,0" transform="translate(-74.011 -49.208)" fill="#fff"/>
      <path id="Path_3743" data-name="Path 3743" d="M269.279,68.92a12.189,12.189,0,0,0-1.569.1,12.084,12.084,0,0,0-11.964-10.389c-.051,0-.1,0-.153,0V93.084h13.686a12.082,12.082,0,0,0,0-24.164Zm0,0" transform="translate(-214.507 -49.208)" fill="#e9edf5"/>
      <g id="Group_2066" data-name="Group 2066" transform="translate(27.638 18.352)">
        <path id="Path_3744" data-name="Path 3744" d="M239.308,211.083a3.7,3.7,0,1,0,0,5.228A3.7,3.7,0,0,0,239.308,211.083Zm0,0" transform="translate(-223.18 -194.594)" fill="#ffce00"/>
        <path id="Path_3745" data-name="Path 3745" d="M219.437,170.586a6.294,6.294,0,0,0-8.89,0l-3.41-3.41a11.121,11.121,0,0,1,15.71,0Zm0,0" transform="translate(-201.477 -155.928)" fill="#ffce00"/>
        <path id="Path_3746" data-name="Path 3746" d="M195.549,123.162a14.306,14.306,0,0,0-20.209,0l-3.41-3.41a19.134,19.134,0,0,1,27.029,0Zm0,0" transform="translate(-171.93 -114.163)" fill="#ffce00"/>
      </g>
      <path id="Path_3747" data-name="Path 3747" d="M258.273,211.1a3.684,3.684,0,0,0-2.679-1.08V217.4a3.694,3.694,0,0,0,2.679-6.308Zm0,0" transform="translate(-214.507 -176.256)" fill="#ffa300"/>
      <path id="Path_3748" data-name="Path 3748" d="M255.594,163.936v4.82a6.266,6.266,0,0,1,4.51,1.837l3.41-3.41A11.072,11.072,0,0,0,255.594,163.936Zm0,0" transform="translate(-214.507 -137.583)" fill="#ffa300"/>
      <path id="Path_3749" data-name="Path 3749" d="M255.594,114.167v4.821a14.247,14.247,0,0,1,10.17,4.178l3.41-3.41A19.051,19.051,0,0,0,255.594,114.167Zm0,0" transform="translate(-214.507 -95.815)" fill="#ffa300"/>
      <path id="Path_3750" data-name="Path 3750" d="M130.1,345.332H70.438v13.988a41.15,41.15,0,0,0,59.658,0Zm0,0" transform="translate(-59.115 -289.819)" fill="#87c7ff"/>
      <path id="Path_3751" data-name="Path 3751" d="M255.594,345.332v26.791h.065a41.035,41.035,0,0,0,29.829-12.8V345.332Zm0,0" transform="translate(-214.507 -289.819)" fill="#4a98f7"/>
      <path id="Path_3752" data-name="Path 3752" d="M182.332,334.3a41.339,41.339,0,0,0,23.684,0V302.332H182.332Zm0,0" transform="translate(-153.022 -253.732)" fill="#bfe1ff"/>
      <path id="Path_3753" data-name="Path 3753" d="M255.594,302.332v33.7h.065A41.146,41.146,0,0,0,267.5,334.3V302.332Zm0,0" transform="translate(-214.507 -253.732)" fill="#87c7ff"/>
      <path id="Path_3754" data-name="Path 3754" d="M199.773,317.5h7.762v6.758h-7.762Zm0,0" transform="translate(-167.66 -266.461)" fill="#fff"/>
      <path id="Path_3755" data-name="Path 3755" d="M263.941,317.5H271.7v6.758h-7.762Zm0,0" transform="translate(-221.513 -266.461)" fill="#e9edf5"/>
      <path id="Path_3756" data-name="Path 3756" d="M199.773,377.766h7.762v6.758h-7.762Zm0,0" transform="translate(-167.66 -317.039)" fill="#fff"/>
      <path id="Path_3757" data-name="Path 3757" d="M263.941,377.766H271.7v6.758h-7.762Zm0,0" transform="translate(-221.513 -317.039)" fill="#e9edf5"/>
      <path id="Path_3758" data-name="Path 3758" d="M199.773,438.035h7.762v6.758h-7.762Zm0,0" transform="translate(-167.66 -367.62)" fill="#fff"/>
      <path id="Path_3759" data-name="Path 3759" d="M263.941,438.035H271.7v6.758h-7.762Zm0,0" transform="translate(-221.513 -367.62)" fill="#e9edf5"/>
    </g>
  </g>
</svg>
